<?xml version="1.0" encoding="UTF-8"?>
<!DOCTYPE svg PUBLIC "-//W3C//DTD SVG 1.1//EN" "http://www.w3.org/Graphics/SVG/1.1/DTD/svg11.dtd">
<svg xmlns="http://www.w3.org/2000/svg" style="background-color: #ffffff;"
    xmlns:xlink="http://www.w3.org/1999/xlink" version="1.1" width="350px" height="300px">
    <defs/>
    <g transform="translate(15,15)">
        <rect x="0" y="100" width="120" height="60" rx="9" ry="9" fill="#ffffff" stroke="#000000" pointer-events="all"/>

        <text x="60" y="134" fill="#000000" font-family="Helvetica" font-size="14px" text-anchor="middle">Agency</text>

        <rect x="200" y="200" width="120" height="60" rx="9" ry="9" fill="#ffffff" stroke="#000000" pointer-events="all"/>

        <text x="260" y="234" fill="#000000" font-family="Helvetica" font-size="14px" text-anchor="middle">Location</text>

        <rect x="200" y="100" width="120" height="60" rx="9" ry="9" fill="#ffffff" stroke="#000000" pointer-events="all"/>

        <text x="260" y="134" fill="#000000" font-family="Helvetica" font-size="14px" text-anchor="middle">Location</text>

        <rect x="200" y="0" width="120" height="60" rx="9" ry="9" fill="#ffffff" stroke="#000000" pointer-events="all"/>

        <text x="260" y="34" fill="#000000" font-family="Helvetica" font-size="14px" text-anchor="middle">Location</text>

        <path d="M 120 100 L 195.21 34.19" fill="none" stroke="#000000" stroke-miterlimit="10" pointer-events="stroke"/>
        <path d="M 199.16 30.74 L 196.2 37.98 L 195.21 34.19 L 191.59 32.71 Z" fill="#000000" stroke="#000000" stroke-miterlimit="10" pointer-events="all"/>
        <path d="M 120 130 L 193.63 130" fill="none" stroke="#000000" stroke-miterlimit="10" pointer-events="stroke"/>
        <path d="M 198.88 130 L 191.88 133.5 L 193.63 130 L 191.88 126.5 Z" fill="#000000" stroke="#000000" stroke-miterlimit="10" pointer-events="all"/>
        <path d="M 120 160 L 195.21 225.81" fill="none" stroke="#000000" stroke-miterlimit="10" pointer-events="stroke"/>
        <path d="M 199.16 229.26 L 191.59 227.29 L 195.21 225.81 L 196.2 222.02 Z" fill="#000000" stroke="#000000" stroke-miterlimit="10" pointer-events="all"/>
        <path d="M 200 60 L 125.25 111.39" fill="none" stroke="#000000" stroke-miterlimit="10" pointer-events="stroke"/>
        <path d="M 120.92 114.37 L 124.71 107.52 L 125.25 111.39 L 128.67 113.29 Z" fill="#000000" stroke="#000000" stroke-miterlimit="10" pointer-events="all"/>
        <path d="M 200 145 L 126.37 145" fill="none" stroke="#000000" stroke-miterlimit="10" pointer-events="stroke"/>
        <path d="M 121.12 145 L 128.12 141.5 L 126.37 145 L 128.12 148.5 Z" fill="#000000" stroke="#000000" stroke-miterlimit="10" pointer-events="all"/>
        <path d="M 200 245 L 113.67 166.27" fill="none" stroke="#000000" stroke-miterlimit="10" pointer-events="stroke"/>
        <path d="M 109.79 162.73 L 117.32 164.86 L 113.67 166.27 L 112.6 170.04 Z" fill="#000000" stroke="#000000" stroke-miterlimit="10" pointer-events="all"/>
    </g>

</svg>