<?xml version="1.0" encoding="UTF-8"?>
<!DOCTYPE svg PUBLIC "-//W3C//DTD SVG 1.1//EN" "http://www.w3.org/Graphics/SVG/1.1/DTD/svg11.dtd">
<svg xmlns="http://www.w3.org/2000/svg" style="background-color: #ffffff;"
    xmlns:xlink="http://www.w3.org/1999/xlink" version="1.1" width="600px" height="210px">
    <defs/>
    <g transform="translate(15,15)">
        <rect x="340" y="120" width="220" height="60" rx="9" ry="9" fill="#ffffff" stroke="#000000"/>
        <text x="450" y="154" fill="#000000" font-family="Helvetica" font-size="14px" text-anchor="middle">secondary-domain.com</text>
        <rect x="340" y="10" width="220" height="60" rx="9" ry="9" fill="#ffffff" stroke="#000000"/>
        <text x="450" y="44" fill="#000000" font-family="Helvetica" font-size="14px" text-anchor="middle">initial-domain.com</text>
        <rect x="0" y="20" width="120" height="140" rx="18" ry="18" fill="#ffffff" stroke="#000000"/>
        <text x="60" y="94" fill="#000000" font-family="Helvetica" font-size="14px" text-anchor="middle">Browser</text>
        <path d="M 120 43.38 L 333.65 25.53" fill="none" stroke="#000000" stroke-miterlimit="10" pointer-events="stroke"/>
        <path d="M 338.89 25.09 L 332.2 29.16 L 333.65 25.53 L 331.62 22.19 Z" fill="#000000" stroke="#000000" stroke-miterlimit="10"/>
        <path d="M 340 40 L 128.38 61.36" fill="none" stroke="#000000" stroke-miterlimit="10" stroke-dasharray="3 3" pointer-events="stroke"/>
        <path d="M 123.15 61.89 L 129.77 57.7 L 128.38 61.36 L 130.47 64.67 Z" fill="#000000" stroke="#000000" stroke-miterlimit="10"/>
        <path d="M 340 150 L 129.22 104.37" fill="none" stroke="#000000" stroke-miterlimit="10" stroke-dasharray="3 3" pointer-events="stroke"/>
        <path d="M 124.09 103.26 L 131.67 101.32 L 129.22 104.37 L 130.19 108.16 Z" fill="#000000" stroke="#000000" stroke-miterlimit="10"/>
        <path d="M 120 90 L 333.76 133.72" fill="none" stroke="#000000" stroke-miterlimit="10" pointer-events="stroke"/>
        <path d="M 338.9 134.78 L 331.35 136.8 L 333.76 133.72 L 332.75 129.94 Z" fill="#000000" stroke="#000000" stroke-miterlimit="10"/>
        <path d="M 120 138.02 L 193.7 149.06" fill="none" stroke="#000000" stroke-miterlimit="10" pointer-events="stroke"/>
        <path d="M 198.89 149.83 L 191.45 152.26 L 193.7 149.06 L 192.49 145.34 Z" fill="#000000" stroke="#000000" stroke-miterlimit="10"/>

        <text x="300" y="14" fill="#000000" font-family="Helvetica" font-size="14px" text-anchor="middle">1.</text>
        <text x="155" y="74" fill="#000000" font-family="Helvetica" font-size="14px" text-anchor="middle">2.</text>
        <text x="300" y="114" fill="#000000" font-family="Helvetica" font-size="14px" text-anchor="middle">3.</text>
        <text x="155" y="124" fill="#000000" font-family="Helvetica" font-size="14px" text-anchor="middle">4.</text>
        <text x="156" y="164" fill="#000000" font-family="Helvetica" font-size="14px" text-anchor="middle">5.</text>

        <ellipse cx="215" cy="155" rx="15" ry="15" fill="#ffffff" stroke="#000000" stroke-width="2"/>
        <path d="M 204.39 165.61 L 225.61 144.39" fill="none" stroke="#000000" stroke-width="2" stroke-miterlimit="10" pointer-events="stroke"/>
    </g>
</svg>