<?xml version="1.0" encoding="UTF-8"?>
<!DOCTYPE svg PUBLIC "-//W3C//DTD SVG 1.1//EN" "http://www.w3.org/Graphics/SVG/1.1/DTD/svg11.dtd">
<svg xmlns="http://www.w3.org/2000/svg" style="background-color: #ffffff;"
    xmlns:xlink="http://www.w3.org/1999/xlink" version="1.1" width="625px" height="400px">
    <defs/>
    <g transform="translate(15,15)">
        <rect x="220" y="0" width="370" height="280" fill="#ffffff" stroke="#000000"/>

        <text x="222" y="21" fill="#000000" font-family="Helvetica" font-size="14px"> Machine</text>

        <rect x="260" y="30" width="80" height="220" fill="#ffffff" stroke="#000000"/>

        <text x="300" y="144" fill="#000000" font-family="Helvetica" font-size="14px" text-anchor="middle">HTTP</text>
        <text x="300" y="164" fill="#000000" font-family="Helvetica" font-size="14px" text-anchor="middle">Server</text>

        <path d="M 47.5 95 C 9.5 95 0 130 30.4 137 C 0 152.4 34.2 186 58.9 172 C 76 200 133 200 152 172 C 190 172 190 144 166.25 130 C 190 102 152 74 118.75 88 C 95 67 57 67 47.5 95 Z" fill="#ffffff" stroke="#000000" stroke-miterlimit="10"/>

        <text x="95" y="134" fill="#000000" font-family="Helvetica" font-size="14px" text-anchor="middle">The Web</text>

        <rect x="419" y="30" width="141" height="60" fill="#ffffff" stroke="#000000"/>

        <text x="490" y="64" fill="#000000" font-family="Helvetica" font-size="14px" text-anchor="middle">Spring MVC App #1</text>

        <rect x="419" y="190" width="141" height="60" fill="#ffffff" stroke="#000000"/>

        <text x="490" y="224" fill="#000000" font-family="Helvetica" font-size="14px" text-anchor="middle">Spring MVC App #3</text>

        <rect x="419" y="110" width="141" height="60" fill="#ffffff" stroke="#000000"/>

        <text x="490" y="144" fill="#000000" font-family="Helvetica" font-size="14px" text-anchor="middle">Spring MVC App #2</text>

        <path d="M 163.97 88 L 249.81 67.56" fill="none" stroke="#000000" stroke-miterlimit="10"/>
        <path d="M 254.91 66.34 L 248.91 71.37 L 249.81 67.56 L 247.29 64.56 Z" fill="#000000" stroke="#000000" stroke-miterlimit="10"/>
        <path d="M 340 85 L 413.32 122.12" fill="none" stroke="#000000" stroke-miterlimit="10"/>
        <path d="M 418 124.49 L 410.18 124.46 L 413.32 122.12 L 413.34 118.21 Z" fill="#000000" stroke="#000000" stroke-miterlimit="10"/>
        <path d="M 173.09 128.04 L 253.69 139.13" fill="none" stroke="#000000" stroke-miterlimit="10"/>
        <path d="M 258.89 139.85 L 251.48 142.36 L 253.69 139.13 L 252.43 135.43 Z" fill="#000000" stroke="#000000" stroke-miterlimit="10"/>
        <path d="M 159.98 172 L 253.12 208.72" fill="none" stroke="#000000" stroke-miterlimit="10"/>
        <path d="M 258 210.65 L 250.2 211.34 L 253.12 208.72 L 252.77 204.83 Z" fill="#000000" stroke="#000000" stroke-miterlimit="10"/>
        <path d="M 340 140 L 412.63 140" fill="none" stroke="#000000" stroke-miterlimit="10"/>
        <path d="M 417.88 140 L 410.88 143.5 L 412.63 140 L 410.88 136.5 Z" fill="#000000" stroke="#000000" stroke-miterlimit="10"/>
        <path d="M 342 211.94 L 415.13 58.73" fill="none" stroke="#000000" stroke-miterlimit="10"/>
        <path d="M 417.39 53.99 L 417.53 61.81 L 415.13 58.73 L 411.22 58.8 Z" fill="#000000" stroke="#000000" stroke-miterlimit="10"/>
        <path d="M 260 77.08 L 177.11 101.2" fill="none" stroke="#000000" stroke-miterlimit="10" stroke-dasharray="3 3"/>
        <path d="M 172.07 102.67 L 177.82 97.35 L 177.11 101.2 L 179.77 104.07 Z" fill="#000000" stroke="#000000" stroke-miterlimit="10"/>
        <path d="M 420.13 132.98 L 347.84 101.61" fill="none" stroke="#000000" stroke-miterlimit="10" stroke-dasharray="3 3"/>
        <path d="M 343.03 99.53 L 350.84 99.1 L 347.84 101.61 L 348.05 105.52 Z" fill="#000000" stroke="#000000" stroke-miterlimit="10"/>
        <path d="M 260 156.94 L 194.18 145.71" fill="none" stroke="#000000" stroke-miterlimit="10" stroke-dasharray="3 3"/>
        <path d="M 189 144.83 L 196.49 142.55 L 194.18 145.71 L 195.31 149.45 Z" fill="#000000" stroke="#000000" stroke-miterlimit="10"/>
        <path d="M 419 155 L 347.4 151.33" fill="none" stroke="#000000" stroke-miterlimit="10" stroke-dasharray="3 3"/>
        <path d="M 342.16 151.06 L 349.33 147.92 L 347.4 151.33 L 348.97 154.91 Z" fill="#000000" stroke="#000000" stroke-miterlimit="10"/>
        <path d="M 255.04 222.94 L 154.9 184.24" fill="none" stroke="#000000" stroke-miterlimit="10" stroke-dasharray="3 3"/>
        <path d="M 150 182.34 L 157.79 181.6 L 154.9 184.24 L 155.27 188.13 Z" fill="#000000" stroke="#000000" stroke-miterlimit="10"/>
        <path d="M 419 75 L 343.87 226.26" fill="none" stroke="#000000" stroke-miterlimit="10" stroke-dasharray="3 3"/>
        <path d="M 341.54 230.96 L 341.52 223.13 L 343.87 226.26 L 347.79 226.25 Z" fill="#000000" stroke="#000000" stroke-miterlimit="10"/>
        <path d="M 160 370 L 205.5 324.5" fill="none" stroke="#000000" stroke-miterlimit="10" stroke-dasharray="3 3"/>
        <path d="M 209.21 320.79 L 206.73 328.22 L 205.5 324.5 L 201.78 323.27 Z" fill="#000000" stroke="#000000" stroke-miterlimit="10"/>

        <text x="185" y="349" fill="#000000" font-family="Helvetica" font-size="14px" text-anchor="middle">HTTP Response</text>

        <path d="M 50 370 L 95.5 324.5" fill="none" stroke="#000000" stroke-miterlimit="10"/>
        <path d="M 99.21 320.79 L 96.73 328.22 L 95.5 324.5 L 91.78 323.27 Z" fill="#000000" stroke="#000000" stroke-miterlimit="10"/>

        <text x="75" y="349" fill="#000000" font-family="Helvetica" font-size="14px" text-anchor="middle">HTTP Request</text>

    </g>

</svg>