<?xml version="1.0" encoding="UTF-8"?>
<!DOCTYPE svg PUBLIC "-//W3C//DTD SVG 1.1//EN" "http://www.w3.org/Graphics/SVG/1.1/DTD/svg11.dtd">
<svg xmlns="http://www.w3.org/2000/svg" style="background-color: #ffffff;"
    xmlns:xlink="http://www.w3.org/1999/xlink" version="1.1" width="600px" height="365px">
    <defs/>
    <g transform="translate(15,15)">
        <path d="M 420 270 L 420 223.37" fill="none" stroke="#000000" stroke-miterlimit="10"/>
        <path d="M 420 218.12 L 423.5 225.12 L 420 223.37 L 416.5 225.12 Z" fill="#000000" stroke="#000000" stroke-miterlimit="10"/>
        <rect x="0" y="270" width="560" height="60" rx="9" ry="9" fill="#ffffff" stroke="#000000"/>

        <text x="280" y="304" fill="#000000" font-family="Helvetica" font-size="14px" text-anchor="middle">Ethernet, wireless, cable, cell, satellite</text>

        <path d="M 140 217 L 140 263.63" fill="none" stroke="#000000" stroke-miterlimit="10"/>
        <path d="M 140 268.88 L 136.5 261.88 L 140 263.63 L 143.5 261.88 Z" fill="#000000" stroke="#000000" stroke-miterlimit="10"/>
        <path d="M 420 157 L 420 106.37" fill="none" stroke="#000000" stroke-miterlimit="10"/>
        <path d="M 420 101.12 L 423.5 108.12 L 420 106.37 L 416.5 108.12 Z" fill="#000000" stroke="#000000" stroke-miterlimit="10"/>
        <rect x="0" y="157" width="560" height="60" rx="9" ry="9" fill="#ffffff" stroke="#000000"/>

        <text x="280" y="191" fill="#000000" font-family="Helvetica" font-size="14px" text-anchor="middle">TCP, UDP</text>

        <path d="M 140 100 L 140 150.63" fill="none" stroke="#000000" stroke-miterlimit="10"/>
        <path d="M 140 155.88 L 136.5 148.88 L 140 150.63 L 143.5 148.88 Z" fill="#000000" stroke="#000000" stroke-miterlimit="10"/>
        <rect x="0" y="40" width="560" height="60" rx="9" ry="9" fill="#ffffff" stroke="#000000"/>

        <text x="280" y="74" fill="#000000" font-family="Helvetica" font-size="14px" text-anchor="middle">HTTP, HTTPS, FTP</text>


        <text x="61" y="249" fill="#000000" font-family="Helvetica" font-size="14px" text-anchor="middle">Physical Specifics</text>
        <text x="60" y="134" fill="#000000" font-family="Helvetica" font-size="14px" text-anchor="middle">Generic Message</text>
        <text x="65" y="14" fill="#000000" font-family="Helvetica" font-size="14px" text-anchor="middle">Server Negotiation</text>

    </g>

</svg>