<?xml version="1.0" encoding="UTF-8"?>
<!DOCTYPE svg PUBLIC "-//W3C//DTD SVG 1.1//EN" "http://www.w3.org/Graphics/SVG/1.1/DTD/svg11.dtd">
<svg xmlns="http://www.w3.org/2000/svg" style="background-color: #ffffff;"
    xmlns:xlink="http://www.w3.org/1999/xlink" version="1.1" width="675px" height="675px">
    <defs/>
    <g transform="translate(15,15)">
        <rect x="0" y="0" width="120" height="60" rx="9" ry="9" fill="#ffffff" stroke="#000000"/>

        <text x="60" y="34" fill="#000000" font-family="Helvetica" font-size="14px" text-anchor="middle">Web Browser</text>

        <rect x="200" y="50" width="70" height="140" rx="10.5" ry="10.5" fill="#ffffff" stroke="#000000"/>

        <text x="235" y="122" fill="#000000" font-family="Helvetica" font-size="14px" text-anchor="middle">HTTP</text>
        <text x="235" y="140" fill="#000000" font-family="Helvetica" font-size="14px" text-anchor="middle">Server</text>

        <text x="190" y="21" fill="#000000" font-family="Helvetica" font-size="14px" text-anchor="middle">HTTP Request</text>
        <text x="160" y="81" fill="#000000" font-family="Helvetica" font-size="14px" text-anchor="middle">HTML</text>

        <rect x="0" y="81" width="120" height="60" rx="9" ry="9" fill="#ffffff" stroke="#000000"/>

        <text x="60" y="115" fill="#000000" font-family="Helvetica" font-size="14px" text-anchor="middle">Web Browser</text>

        <rect x="0" y="163" width="120" height="60" rx="9" ry="9" fill="#ffffff" stroke="#000000"/>

        <text x="60" y="197" fill="#000000" font-family="Helvetica" font-size="14px" text-anchor="middle">Web Browser</text>

        <path d="M 120 15 L 196.45 56.88" fill="none" stroke="#000000" stroke-miterlimit="10"/>
        <path d="M 201.05 59.4 L 193.23 59.11 L 196.45 56.88 L 196.59 52.97 Z" fill="#000000" stroke="#000000" stroke-miterlimit="10"/>
        <path d="M 197.97 72.96 L 125.99 47.15" fill="none" stroke="#000000" stroke-miterlimit="10" stroke-dasharray="3 3"/>
        <path d="M 121.05 45.38 L 128.82 44.45 L 125.99 47.15 L 126.46 51.03 Z" fill="#000000" stroke="#000000" stroke-miterlimit="10"/>
        <path d="M 120 103.98 L 190.67 112.26" fill="none" stroke="#000000" stroke-miterlimit="10"/>
        <path d="M 195.88 112.87 L 188.52 115.53 L 190.67 112.26 L 189.33 108.58 Z" fill="#000000" stroke="#000000" stroke-miterlimit="10"/>
        <path d="M 196.99 134 L 126.33 126.66" fill="none" stroke="#000000" stroke-miterlimit="10" stroke-dasharray="3 3"/>
        <path d="M 121.11 126.12 L 128.44 123.36 L 126.33 126.66 L 127.71 130.32 Z" fill="#000000" stroke="#000000" stroke-miterlimit="10"/>
        <path d="M 120 193 L 194.25 157.73" fill="none" stroke="#000000" stroke-miterlimit="10"/>
        <path d="M 198.99 155.48 L 194.17 161.64 L 194.25 157.73 L 191.17 155.32 Z" fill="#000000" stroke="#000000" stroke-miterlimit="10"/>
        <path d="M 196.99 174.04 L 125.83 205.43" fill="none" stroke="#000000" stroke-miterlimit="10" stroke-dasharray="3 3"/>
        <path d="M 121.02 207.55 L 126.01 201.52 L 125.83 205.43 L 128.84 207.93 Z" fill="#000000" stroke="#000000" stroke-miterlimit="10"/>
        <rect x="340" y="180" width="120" height="260" rx="18" ry="18" fill="#bbe5f2" stroke="#000000"/>

        <text x="400" y="314" fill="#000000" font-family="Helvetica" font-size="14px" text-anchor="middle">Web Service</text>

        <path d="M 270 103.06 L 333.84 214.51" fill="none" stroke="#000000" stroke-miterlimit="10"/>
        <path d="M 336.44 219.07 L 329.93 214.74 L 333.84 214.51 L 336 211.26 Z" fill="#000000" stroke="#000000" stroke-miterlimit="10"/>
        <rect x="0" y="244" width="120" height="60" rx="9" ry="9" fill="#ffffff" stroke="#000000"/>

        <text x="60" y="278" fill="#000000" font-family="Helvetica" font-size="14px" text-anchor="middle">iPhone App</text>
        <text x="210" y="258" fill="#000000" font-family="Helvetica" font-size="14px" text-anchor="middle">HTTP Request</text>
        <text x="210" y="301" fill="#000000" font-family="Helvetica" font-size="14px" text-anchor="middle">JSON</text>

        <rect x="0" y="326" width="120" height="60" rx="9" ry="9" fill="#ffffff" stroke="#000000"/>

        <text x="60" y="360" fill="#000000" font-family="Helvetica" font-size="14px" text-anchor="middle">Android App</text>

        <rect x="0" y="570" width="120" height="60" rx="9" ry="9" fill="#ffffff" stroke="#000000"/>

        <text x="60" y="604" fill="#000000" font-family="Helvetica" font-size="14px" text-anchor="middle">Service</text>

        <rect x="0" y="489" width="120" height="60" rx="9" ry="9" fill="#ffffff" stroke="#000000"/>

        <text x="60" y="523" fill="#000000" font-family="Helvetica" font-size="14px" text-anchor="middle">JavaScript App</text>

        <path d="M 530 205 C 530 196.72 545.67 190 565 190 C 574.28 190 583.18 191.58 589.75 194.39 C 596.31 197.21 600 201.02 600 205 L 600 265 C 600 273.28 584.33 280 565 280 C 545.67 280 530 273.28 530 265 Z" fill="#ffffff" stroke="#000000" stroke-miterlimit="10"/>
        <path d="M 600 205 C 600 213.28 584.33 220 565 220 C 545.67 220 530 213.28 530 205" fill="none" stroke="#000000" stroke-miterlimit="10"/>

        <text x="565" y="242" fill="#000000" font-family="Helvetica" font-size="14px" text-anchor="middle">Database</text>

        <rect x="0" y="407" width="120" height="60" rx="9" ry="9" fill="#ffffff" stroke="#000000"/>

        <text x="60" y="441" fill="#000000" font-family="Helvetica" font-size="14px" text-anchor="middle">Windows App</text>

        <rect x="500" y="347" width="120" height="120" rx="18" ry="18" fill="#ffffff" stroke="#000000"/>

        <text x="560" y="411" fill="#000000" font-family="Helvetica" font-size="14px" text-anchor="middle">Web Service</text>

        <path d="M 120 341 L 331.71 299.27" fill="none" stroke="#000000" stroke-miterlimit="10"/>
        <path d="M 336.86 298.26 L 330.67 303.04 L 331.71 299.27 L 329.32 296.18 Z" fill="#000000" stroke="#000000" stroke-miterlimit="10"/>
        <path d="M 120 429.02 L 334.14 338" fill="none" stroke="#000000" stroke-miterlimit="10"/>
        <path d="M 338.97 335.94 L 333.9 341.9 L 334.14 338 L 331.16 335.46 Z" fill="#000000" stroke="#000000" stroke-miterlimit="10"/>
        <path d="M 460 245 L 523.09 220.31" fill="none" stroke="#000000" stroke-miterlimit="10"/>
        <path d="M 527.98 218.4 L 522.74 224.21 L 523.09 220.31 L 520.18 217.69 Z" fill="#000000" stroke="#000000" stroke-miterlimit="10"/>
        <path d="M 120 268 L 335.67 263.09" fill="none" stroke="#000000" stroke-miterlimit="10"/>
        <path d="M 340.92 262.97 L 334 266.62 L 335.67 263.09 L 333.84 259.63 Z" fill="#000000" stroke="#000000" stroke-miterlimit="10"/>
        <path d="M 460 375 L 493.64 376.68" fill="none" stroke="#000000" stroke-miterlimit="10"/>
        <path d="M 498.88 376.94 L 491.72 380.09 L 493.64 376.68 L 492.07 373.1 Z" fill="#000000" stroke="#000000" stroke-miterlimit="10"/>
        <path d="M 120 504 L 333.63 371.34" fill="none" stroke="#000000" stroke-miterlimit="10"/>
        <path d="M 338.09 368.57 L 333.99 375.24 L 333.63 371.34 L 330.3 369.29 Z" fill="#000000" stroke="#000000" stroke-miterlimit="10"/>
        <path d="M 120 585 L 330.06 411.04" fill="none" stroke="#000000" stroke-miterlimit="10"/>
        <path d="M 334.1 407.69 L 330.94 414.85 L 330.06 411.04 L 326.48 409.46 Z" fill="#000000" stroke="#000000" stroke-miterlimit="10"/>
        <path d="M 339.04 422.06 L 124.94 595.98" fill="none" stroke="#000000" stroke-miterlimit="10" stroke-dasharray="3 3"/>
        <path d="M 120.87 599.3 L 124.09 592.16 L 124.94 595.98 L 128.51 597.6 Z" fill="#000000" stroke="#000000" stroke-miterlimit="10"/>
        <path d="M 339.04 388 L 125.47 515.73" fill="none" stroke="#000000" stroke-miterlimit="10" stroke-dasharray="3 3"/>
        <path d="M 120.96 518.43 L 125.17 511.83 L 125.47 515.73 L 128.76 517.84 Z" fill="#000000" stroke="#000000" stroke-miterlimit="10"/>
        <path d="M 337.96 350.04 L 126.79 442.43" fill="none" stroke="#000000" stroke-miterlimit="10" stroke-dasharray="3 3"/>
        <path d="M 121.98 444.53 L 126.99 438.52 L 126.79 442.43 L 129.8 444.93 Z" fill="#000000" stroke="#000000" stroke-miterlimit="10"/>
        <path d="M 340 310 L 126.23 354.7" fill="none" stroke="#000000" stroke-miterlimit="10" stroke-dasharray="3 3"/>
        <path d="M 121.09 355.77 L 127.23 350.91 L 126.23 354.7 L 128.66 357.76 Z" fill="#000000" stroke="#000000" stroke-miterlimit="10"/>
        <path d="M 340.96 272.04 L 126.35 288.51" fill="none" stroke="#000000" stroke-miterlimit="10" stroke-dasharray="3 3"/>
        <path d="M 121.11 288.91 L 127.83 284.89 L 126.35 288.51 L 128.36 291.87 Z" fill="#000000" stroke="#000000" stroke-miterlimit="10"/>
        <path d="M 500.96 413.96 L 468.08 403.01" fill="none" stroke="#000000" stroke-miterlimit="10" stroke-dasharray="3 3"/>
        <path d="M 463.1 401.35 L 470.85 400.24 L 468.08 403.01 L 468.64 406.89 Z" fill="#000000" stroke="#000000" stroke-miterlimit="10"/>
        <path d="M 527.97 258.04 L 465.23 273.39" fill="none" stroke="#000000" stroke-miterlimit="10" stroke-dasharray="3 3"/>
        <path d="M 460.13 274.63 L 466.09 269.57 L 465.23 273.39 L 467.76 276.37 Z" fill="#000000" stroke="#000000" stroke-miterlimit="10"/>
        <path d="M 336.04 230.96 L 274.29 163.14" fill="none" stroke="#000000" stroke-miterlimit="10" stroke-dasharray="3 3"/>
        <path d="M 270.75 159.26 L 278.05 162.08 L 274.29 163.14 L 272.88 166.8 Z" fill="#000000" stroke="#000000" stroke-miterlimit="10"/>
    </g>
</svg>