<?xml version="1.0" encoding="UTF-8"?>
<!DOCTYPE svg PUBLIC "-//W3C//DTD SVG 1.1//EN" "http://www.w3.org/Graphics/SVG/1.1/DTD/svg11.dtd">
<svg xmlns="http://www.w3.org/2000/svg" style="background-color: #ffffff;"
    xmlns:xlink="http://www.w3.org/1999/xlink" version="1.1" width="530px" height="300px">
    <defs/>
    <g transform="translate(15,15)">
        <rect x="0" y="38" width="490" height="230" rx="34.5" ry="34.5" fill="#ffffff" stroke="#000000"/>
        <rect x="20" y="81" width="450" height="160" rx="24" ry="24" fill="#ffffff" stroke="#000000"/>

        <text x="80" y="62" fill="#000000" font-family="Helvetica" font-size="14px" text-anchor="middle" font-weight="bold">Local Network</text>

        <rect x="50" y="118" width="120" height="90" rx="13.5" ry="13.5" fill="#ffffff" stroke="#000000"/>

        <text x="110" y="151" fill="#000000" font-family="Helvetica" font-size="14px" text-anchor="middle">React</text>
        <text x="110" y="169" fill="#000000" font-family="Helvetica" font-size="14px" text-anchor="middle">bug-safari-ui</text>
        <text x="110" y="187" fill="#000000" font-family="Helvetica" font-size="14px" text-anchor="middle">localhost:3000</text>

        <rect x="325" y="118" width="120" height="90" rx="13.5" ry="13.5" fill="#ffffff" stroke="#000000"/>

        <text x="385" y="151" fill="#000000" font-family="Helvetica" font-size="14px" text-anchor="middle">Java</text>
        <text x="385" y="169" fill="#000000" font-family="Helvetica" font-size="14px" text-anchor="middle">bug-safari-two</text>
        <text x="385" y="187" fill="#000000" font-family="Helvetica" font-size="14px" text-anchor="middle">localhost:8080</text>

        <path d="M 170 140.5 L 318.63 140.5" fill="none" stroke="#000000" stroke-miterlimit="10" pointer-events="stroke"/>
        <path d="M 323.88 140.5 L 316.88 144 L 318.63 140.5 L 316.88 137 Z" fill="#000000" stroke="#000000" stroke-miterlimit="10"/>
        <path d="M 325 185.5 L 176.37 185.5" fill="none" stroke="#000000" stroke-miterlimit="10" stroke-dasharray="3 3" pointer-events="stroke"/>
        <path d="M 171.12 185.5 L 178.12 182 L 176.37 185.5 L 178.12 189 Z" fill="#000000" stroke="#000000" stroke-miterlimit="10"/>

        <rect x="196" y="125" width="100" height="30" fill="#ffffff" stroke="none"/>
        <text x="248" y="145" fill="#000000" font-family="Helvetica" font-size="14px" text-anchor="middle">HTTP Request.</text>


        <rect x="190" y="170" width="110" height="30" fill="#ffffff" stroke="none"/>
        <text x="247" y="190" fill="#000000" font-family="Helvetica" font-size="14px" text-anchor="middle">HTTP Response.</text>


        <text x="79" y="14" fill="#000000" font-family="Helvetica" font-size="14px" text-anchor="middle" font-weight="bold">Your Machine</text>

    </g>

</svg>