<?xml version="1.0" encoding="UTF-8"?>
<!DOCTYPE svg PUBLIC "-//W3C//DTD SVG 1.1//EN" "http://www.w3.org/Graphics/SVG/1.1/DTD/svg11.dtd">
<svg xmlns="http://www.w3.org/2000/svg" style="background-color: #fff;" 
    xmlns:xlink="http://www.w3.org/1999/xlink" version="1.1" width="750px" height="645px">
    <style>
    text {
        font-family: Helvetica, Arial, sans-serif;
        font-size: 12px;
    }
    text.header {
        font-size: 14px;
        font-weight: 700;
    }
    </style>
    <g transform="translate(10, 5)">
        <rect x="0" y="20" width="310" height="607" fill="#ffffff" stroke="#000000"/>
        <rect x="320" y="20" width="400" height="607" fill="#ffffff" stroke="#000000"/>
        <rect x="360" y="40" width="120" height="60" rx="9" ry="9" fill="#ffffff" stroke="#000000"/>

        <text x="420" y="74" fill="#000000" text-anchor="middle">Throwable</text>

        <path d="M 600 150 L 600 125 L 450 125 L 450 106.37" fill="none" stroke="#000000" stroke-miterlimit="10"/>
        <path d="M 450 101.12 L 453.5 108.12 L 450 106.37 L 446.5 108.12 Z" fill="#000000" stroke="#000000" stroke-miterlimit="10"/>
        <rect x="570" y="150" width="120" height="60" rx="9" ry="9" fill="#ffffff" stroke="#000000"/>

        <text x="630" y="184" fill="#000000" text-anchor="middle">Error</text>

        <path d="M 140 150 L 140 125 L 390 125 L 390 106.37" fill="none" stroke="#000000" stroke-miterlimit="10"/>
        <path d="M 390 101.12 L 393.5 108.12 L 390 106.37 L 386.5 108.12 Z" fill="#000000" stroke="#000000" stroke-miterlimit="10"/>
        <rect x="80" y="150" width="120" height="60" rx="9" ry="9" fill="#ffffff" stroke="#000000"/>

        <text x="140" y="184" fill="#000000" text-anchor="middle">Exception</text>

        <path d="M 70 270 L 70 240 L 110 240 L 110 216.37" fill="none" stroke="#000000" stroke-miterlimit="10"/>
        <path d="M 110 211.12 L 113.5 218.12 L 110 216.37 L 106.5 218.12 Z" fill="#000000" stroke="#000000" stroke-miterlimit="10"/>
        <rect x="10" y="270" width="120" height="60" rx="9" ry="9" fill="#ffffff" stroke="#000000"/>

        <text x="70" y="304" fill="#000000" text-anchor="middle">ParseException</text>

        <path d="M 465 260 L 465 180 L 206.37 180" fill="none" stroke="#000000" stroke-miterlimit="10"/>
        <path d="M 201.12 180 L 208.12 176.5 L 206.37 180 L 208.12 183.5 Z" fill="#000000" stroke="#000000" stroke-miterlimit="10"/>
        <rect x="405" y="260" width="120" height="60" rx="9" ry="9" fill="#ffffff" stroke="#000000"/>

        <text x="465" y="294" fill="#000000" text-anchor="middle">RuntimeException</text>

        <path d="M 425 380 L 425 350 L 435 350 L 435 326.37" fill="none" stroke="#000000" stroke-miterlimit="10"/>
        <path d="M 435 321.12 L 438.5 328.12 L 435 326.37 L 431.5 328.12 Z" fill="#000000" stroke="#000000" stroke-miterlimit="10"/>
        <rect x="360" y="380" width="130" height="60" rx="9" ry="9" fill="#ffffff" stroke="#000000"/>

        <text x="425" y="414" fill="#000000" text-anchor="middle">NullPointerException</text>

        <path d="M 240 270 L 240 240 L 162 240 L 161.97 216.37" fill="none" stroke="#000000" stroke-miterlimit="10"/>
        <path d="M 161.96 211.12 L 165.47 218.11 L 161.97 216.37 L 158.47 218.12 Z" fill="#000000" stroke="#000000" stroke-miterlimit="10"/>
        <rect x="180" y="270" width="120" height="60" rx="9" ry="9" fill="#ffffff" stroke="#000000"/>

        <text x="240" y="304" fill="#000000" text-anchor="middle">IOException</text>

        <path d="M 615 380 L 615 350 L 495 350 L 495 326.37" fill="none" stroke="#000000" stroke-miterlimit="10"/>
        <path d="M 495 321.12 L 498.5 328.12 L 495 326.37 L 491.5 328.12 Z" fill="#000000" stroke="#000000" stroke-miterlimit="10"/>
        <rect x="530" y="380" width="170" height="60" rx="9" ry="9" fill="#ffffff" stroke="#000000"/>

        <text x="615" y="414" fill="#000000" text-anchor="middle">IllegalArgumentException</text>

        <path d="M 535 530 L 535 485 L 615 485 L 615 446.37" fill="none" stroke="#000000" stroke-miterlimit="10"/>
        <path d="M 615 441.12 L 618.5 448.12 L 615 446.37 L 611.5 448.12 Z" fill="#000000" stroke="#000000" stroke-miterlimit="10"/>
        <rect x="460" y="530" width="150" height="60" rx="9" ry="9" fill="#ffffff" stroke="#000000"/>

        <text x="535" y="564" fill="#000000" text-anchor="middle">NumberFormatException</text>

        <text x="325" y="14" fill="#000000" class="header">Unchecked</text>
        <text x="5" y="14" fill="#000000" class="header">Checked</text>
    </g>
</svg>