<?xml version="1.0" encoding="UTF-8"?>
<!DOCTYPE svg PUBLIC "-//W3C//DTD SVG 1.1//EN" "http://www.w3.org/Graphics/SVG/1.1/DTD/svg11.dtd">
<svg xmlns="http://www.w3.org/2000/svg" style="background-color: #ffffff;"
    xmlns:xlink="http://www.w3.org/1999/xlink" version="1.1" width="460px" height="300px">
    <defs/>
    <g transform="translate(15, 15)">
        <ellipse cx="23" cy="5" rx="5" ry="5" fill="#ffffff" stroke="#000000"/>
        <path d="M 23 10 L 23 26.67 M 23 13.33 L 13 13.33 M 23 13.33 L 33 13.33 M 23 26.67 L 13 40 M 23 26.67 L 33 40" fill="none" stroke="#000000" stroke-miterlimit="10"/>
        <path d="M 23 80 L 23 270" fill="none" stroke="#000000" stroke-miterlimit="10" stroke-dasharray="3 3"/>

        <text x="23" y="57" fill="#000000" font-family="Helvetica" font-size="14px" text-anchor="middle">Service</text>
        <text x="23" y="72" fill="#000000" font-family="Helvetica" font-size="14px" text-anchor="middle">User</text>

        <rect x="328" y="0" width="100" height="40" fill="#ffffff" stroke="#000000"/>
        <path d="M 378 40 L 378 270" fill="none" stroke="#000000" stroke-miterlimit="10" stroke-dasharray="3 3"/>

        <text x="378" y="24" fill="#000000" font-family="Helvetica" font-size="14px" text-anchor="middle">Repository</text>

        <rect x="151" y="0" width="100" height="40" fill="#ffffff" stroke="#000000"/>
        <path d="M 201 40 L 201 270" fill="none" stroke="#000000" stroke-miterlimit="10" stroke-dasharray="3 3"/>

        <text x="201" y="24" fill="#000000" font-family="Helvetica" font-size="14px" text-anchor="middle">Service</text>

        <path d="M 22.5 100 L 192.38 100" fill="none" stroke="#000000" stroke-miterlimit="10" pointer-events="stroke"/>
        <path d="M 199.38 100 L 192.38 103.5 L 192.38 96.5 Z" fill="#000000" stroke="#000000" stroke-miterlimit="10"/>

        <text x="112" y="97" fill="#000000" font-family="Helvetica" font-size="14px" text-anchor="middle">findPublicMemories</text>

        <path d="M 200.5 136 L 369.38 136" fill="none" stroke="#000000" stroke-miterlimit="10" pointer-events="stroke"/>
        <path d="M 376.38 136 L 369.38 139.5 L 369.38 132.5 Z" fill="#000000" stroke="#000000" stroke-miterlimit="10"/>

        <text x="290" y="133" fill="#000000" font-family="Helvetica" font-size="14px" text-anchor="middle">findShareable(true)</text>

        <path d="M 377.5 185 L 202.74 185" fill="none" stroke="#000000" stroke-miterlimit="10" stroke-dasharray="3 3" pointer-events="stroke"/>
        <path d="M 210.62 180.5 L 201.62 185 L 210.62 189.5" fill="none" stroke="#000000" stroke-miterlimit="10"/>

        <text x="289" y="182" fill="#000000" font-family="Helvetica" font-size="14px" text-anchor="middle">List&lt;Memory&gt;</text>

        <path d="M 200.5 221 L 24.74 221" fill="none" stroke="#000000" stroke-miterlimit="10" stroke-dasharray="3 3" pointer-events="stroke"/>
        <path d="M 32.62 216.5 L 23.62 221 L 32.62 225.5" fill="none" stroke="#000000" stroke-miterlimit="10"/>

        <text x="112" y="218" fill="#000000" font-family="Helvetica" font-size="14px" text-anchor="middle">List&lt;Memory&gt;</text>

    </g>

</svg>