<?xml version="1.0" encoding="UTF-8"?>
<!DOCTYPE svg PUBLIC "-//W3C//DTD SVG 1.1//EN" "http://www.w3.org/Graphics/SVG/1.1/DTD/svg11.dtd">
<svg xmlns="http://www.w3.org/2000/svg" style="background-color: #ffffff;" 
    xmlns:xlink="http://www.w3.org/1999/xlink" version="1.1" width="425px" height="240px">
    <style>
    text {
        font-family: Helvetica, Arial, sans-serif;
        font-size: 12px;
    }   
    </style>
    <g transform="translate(10, 10)">
        <rect x="0" y="0" width="300" height="60" rx="9" ry="9" fill="#ffffff" stroke="#000000"/>
        <text x="150" y="34" fill="#000000" text-anchor="middle">User Interface</text>

        <rect x="0" y="80" width="300" height="60" rx="9" ry="9" fill="#ffffff" stroke="#000000"/>
        <text x="150" y="114" fill="#000000" text-anchor="middle">Domain</text>

        <rect x="0" y="160" width="300" height="60" rx="9" ry="9" fill="#ffffff" stroke="#000000"/>
        <text x="150" y="194" fill="#000000" text-anchor="middle">Data Access</text>

        <rect x="330" y="0" width="70" height="220" rx="10.5" ry="10.5" fill="#ffffff" stroke="#000000"/>
        <text x="365" y="114" fill="#000000" text-anchor="middle">Models</text>

        <path d="M 235 40.5 L 245 40.5 L 245 70.5 L 255.5 70.5 L 240 89.5 L 224.5 70.5 L 235 70.5 Z" fill="#ffffff" stroke="#000000" stroke-linejoin="round" stroke-miterlimit="10"/>
        <path d="M 235 120.5 L 245 120.5 L 245 150.5 L 255.5 150.5 L 240 169.5 L 224.5 150.5 L 235 150.5 Z" fill="#ffffff" stroke="#000000" stroke-linejoin="round" stroke-miterlimit="10"/>
        <path d="M 278.5 194.5 L 278.5 184.5 L 318.5 184.5 L 318.5 174 L 337.5 189.5 L 318.5 205 L 318.5 194.5 Z" fill="#ffffff" stroke="#000000" stroke-linejoin="round" stroke-miterlimit="10"/>
        <path d="M 278.5 114.5 L 278.5 104.5 L 318.5 104.5 L 318.5 94 L 337.5 109.5 L 318.5 125 L 318.5 114.5 Z" fill="#ffffff" stroke="#000000" stroke-linejoin="round" stroke-miterlimit="10"/>
        <path d="M 277.5 34.5 L 277.5 24.5 L 317.5 24.5 L 317.5 14 L 336.5 29.5 L 317.5 45 L 317.5 34.5 Z" fill="#ffffff" stroke="#000000" stroke-linejoin="round" stroke-miterlimit="10"/>
    </g>
</svg>