<?xml version="1.0" encoding="UTF-8"?>
<!DOCTYPE svg PUBLIC "-//W3C//DTD SVG 1.1//EN" "http://www.w3.org/Graphics/SVG/1.1/DTD/svg11.dtd">
<svg xmlns="http://www.w3.org/2000/svg" style="background-color: rgb(255, 255, 255);" 
    xmlns:xlink="http://www.w3.org/1999/xlink" version="1.1" width="400px" height="325px">
    <style>
    text {
        font-family: Helvetica, Arial, sans-serif;
        font-size: 12px;
    }   
    </style>
    <g transform="translate(10,10)">
        <rect x="249" y="0" width="100" height="40" fill="#ffffff" stroke="#000000"/>
        <path d="M 299 40 L 299 300" fill="none" stroke="#000000" stroke-miterlimit="10" stroke-dasharray="3 3"/>

        <text x="299" y="24" fill="#000000" text-anchor="middle">Service</text>

        <rect x="129" y="0" width="100" height="40" fill="#ffffff" stroke="#000000"/>
        <path d="M 179 40 L 179 300" fill="none" stroke="#000000" stroke-miterlimit="10" stroke-dasharray="3 3"/>

        <text x="179" y="24" fill="#000000" text-anchor="middle">Controller</text>

        <rect x="9" y="0" width="100" height="40" fill="#ffffff" stroke="#000000"/>
        <path d="M 59 40 L 59 300" fill="none" stroke="#000000" stroke-miterlimit="10" stroke-dasharray="3 3"/>

        <text x="59" y="24" fill="#000000" text-anchor="middle">View</text>

        <path d="M 24 80 L 176.26 80" fill="none" stroke="#000000" stroke-miterlimit="10"/>
        <ellipse cx="17" cy="80" rx="7" ry="7" fill="#000000" stroke="#000000"/>
        <path d="M 168.38 84.5 L 177.38 80 L 168.38 75.5" fill="none" stroke="#000000" stroke-miterlimit="10"/>

        <text x="94" y="77" fill="#000000" text-anchor="middle">Create a Model</text>

        <path d="M 178.5 122 L 66.62 122" fill="none" stroke="#000000" stroke-miterlimit="10"/>
        <path d="M 59.62 122 L 66.62 118.5 L 66.62 125.5 Z" fill="#000000" stroke="#000000" stroke-miterlimit="10"/>

        <text x="119" y="119" fill="#000000" text-anchor="middle">Ask for Model</text>

        <path d="M 58.5 159 L 176.26 159" fill="none" stroke="#000000" stroke-miterlimit="10" stroke-dasharray="3 3"/>
        <path d="M 168.38 163.5 L 177.38 159 L 168.38 154.5" fill="none" stroke="#000000" stroke-miterlimit="10"/>

        <text x="119" y="156" fill="#000000" text-anchor="middle">model</text>

        <path d="M 178.5 196 L 290.38 196" fill="none" stroke="#000000" stroke-miterlimit="10"/>
        <path d="M 297.38 196 L 290.38 199.5 L 290.38 192.5 Z" fill="#000000" stroke="#000000" stroke-miterlimit="10"/>

        <text x="239" y="193" fill="#000000" text-anchor="middle">Save Model (model)</text>

        <path d="M 298.5 236 L 180.74 236" fill="none" stroke="#000000" stroke-miterlimit="10" stroke-dasharray="3 3"/>
        <path d="M 188.62 231.5 L 179.62 236 L 188.62 240.5" fill="none" stroke="#000000" stroke-miterlimit="10"/>

        <text x="239" y="233" fill="#000000" text-anchor="middle">Success</text>

        <path d="M 178.5 254 L 66.62 254" fill="none" stroke="#000000" stroke-miterlimit="10"/>
        <path d="M 59.62 254 L 66.62 250.5 L 66.62 257.5 Z" fill="#000000" stroke="#000000" stroke-miterlimit="10"/>

        <text x="119" y="251" fill="#000000" text-anchor="middle">Display Success</text>

    </g>

</svg>