<?xml version="1.0" encoding="UTF-8"?>
<!DOCTYPE svg PUBLIC "-//W3C//DTD SVG 1.1//EN" "http://www.w3.org/Graphics/SVG/1.1/DTD/svg11.dtd">
<svg xmlns="http://www.w3.org/2000/svg" style="background-color: #ffffff;" 
    xmlns:xlink="http://www.w3.org/1999/xlink" version="1.1" width="400px" height="245px">
    <style>
    text {
        font-family: Helvetica, Arial, sans-serif;
        font-size: 12px;
    }   
    </style>
    <g transform="translate(10, 10)">
        <path d="M 150 80 L 150 120 L 60 120 L 60 153.63" fill="none" stroke="#000000" stroke-miterlimit="10"/>
        <path d="M 60 158.88 L 56.5 151.88 L 60 153.63 L 63.5 151.88 Z" fill="#000000" stroke="#000000" stroke-miterlimit="10"/>
        <path d="M 210 80 L 210 120 L 300 120 L 300 153.63" fill="none" stroke="#000000" stroke-miterlimit="10"/>
        <path d="M 300 158.88 L 296.5 151.88 L 300 153.63 L 303.5 151.88 Z" fill="#000000" stroke="#000000" stroke-miterlimit="10"/>
        <rect x="120" y="20" width="120" height="60" rx="9" ry="9" fill="#ffffff" stroke="#000000"/>
        <text x="180" y="54" fill="#000000" text-anchor="middle">Controller</text>
        <rect x="0" y="160" width="120" height="60" rx="9" ry="9" fill="#ffffff" stroke="#000000"/>
        <text x="60" y="194" fill="#000000" text-anchor="middle">View</text>
        <rect x="240" y="160" width="120" height="60" rx="9" ry="9" fill="#ffffff" stroke="#000000"/>
        <text x="300" y="185" fill="#000000" text-anchor="middle">Model</text>
        <text x="300" y="200" fill="#000000" text-anchor="middle">(from domain)</text>
        <text x="20" y="14" fill="#000000" text-anchor="middle">MVC</text>
    </g>

</svg>