<?xml version="1.0" encoding="UTF-8"?>
<!DOCTYPE svg PUBLIC "-//W3C//DTD SVG 1.1//EN" "http://www.w3.org/Graphics/SVG/1.1/DTD/svg11.dtd">
<svg xmlns="http://www.w3.org/2000/svg" style="background-color: #fff" 
    xmlns:xlink="http://www.w3.org/1999/xlink" version="1.1" width="475px" height="350px">
    <style>
    text {
        font-family: Helvetica, Arial, sans-serif;
        font-size: 14px;
    }
    </style>
    <defs>
        <marker markerWidth="10" markerHeight="10" refX="5" refY="5" viewBox="0 0 10 10" orient="auto" id="arrow">
            <path d="M 0 0 L 10 5 L 0 10 L 3 5 z"></path>
        </marker>
    </defs>
    <g transform="translate(165, 10)">
        <rect width="150" height="140" x="0" y="0" fill="none" stroke="#000000" stroke-width="1"></rect>
        <line x1="0" y1="35" x2="150" y2="35" stroke="#000000" stroke-width="1"/>
        <text x="5" y="23">Person</text>
        <text x="5" y="55">String firstName</text>
        <text x="5" y="80">String lastName</text>
        <line x1="0" y1="100" x2="150" y2="100" stroke="#000000" stroke-width="1"/>
        <text x="5" y="125">getFullName</text>
    </g>
    <g transform="translate(10, 225)">
        <rect width="150" height="75" x="0" y="0" fill="none" stroke="#000000" stroke-width="1"></rect>
        <line x1="0" y1="35" x2="150" y2="35" stroke="#000000" stroke-width="1"/>
        <text x="5" y="23">Student</text>
        <text x="5" y="55">String studentId</text>
    </g>
    <g transform="translate(305, 220)">
        <rect width="150" height="95" x="0" y="0" fill="none" stroke="#000000" stroke-width="1"></rect>
        <line x1="0" y1="35" x2="150" y2="35" stroke="#000000" stroke-width="1"/>
        <text x="5" y="23">Intructor</text>
        <text x="5" y="55">String employeeId</text>
        <text x="5" y="80">String title</text>
    </g>
    <path d="M 85 225 L 85 200 L 215 200 L 215 160" fill="none" stroke="#000000" stroke-width="1" marker-end="url(#arrow)"/>
    <text x="115" y="190">extends</text>
    <path d="M 380 220 L 380 200 L 245 200 L 245 160" fill="none" stroke="#000000" stroke-width="1" marker-end="url(#arrow)"/>
    <text x="285" y="190">extends</text>
</svg>