<?xml version="1.0" encoding="UTF-8"?>
<!DOCTYPE svg PUBLIC "-//W3C//DTD SVG 1.1//EN" "http://www.w3.org/Graphics/SVG/1.1/DTD/svg11.dtd">
<svg xmlns="http://www.w3.org/2000/svg" version="1.1" 
    xmlns:xlink="http://www.w3.org/1999/xlink" 
    xmlns:svgjs="http://svgjs.com/svgjs" style="background-color: #fff;" width="325" height="275">
    <defs>
        <marker markerWidth="10" markerHeight="10" refX="5" refY="5" viewBox="0 0 10 10" orient="auto" id="SvgjsMarker1000">
            <path d="M 0 0 L 10 5 L 0 10 L 3 5 z"></path>
        </marker>
    </defs>
    <line x1="75" y1="10" x2="75" y2="210" fill="none" stroke="#000000" stroke-width="1"></line>
    <line x1="75" y1="10" x2="275" y2="10" fill="none" stroke="#000000" stroke-width="1"></line>
    <line x1="115" y1="10" x2="115" y2="210" fill="none" stroke="#000000" stroke-width="1"></line>
    <line x1="75" y1="50" x2="275" y2="50" fill="none" stroke="#000000" stroke-width="1"></line>
    <line x1="155" y1="10" x2="155" y2="210" fill="none" stroke="#000000" stroke-width="1"></line>
    <line x1="75" y1="90" x2="275" y2="90" fill="none" stroke="#000000" stroke-width="1"></line>
    <line x1="195" y1="10" x2="195" y2="210" fill="none" stroke="#000000" stroke-width="1"></line>
    <line x1="75" y1="130" x2="275" y2="130" fill="none" stroke="#000000" stroke-width="1"></line>
    <line x1="235" y1="10" x2="235" y2="210" fill="none" stroke="#000000" stroke-width="1"></line>
    <line x1="75" y1="170" x2="275" y2="170" fill="none" stroke="#000000" stroke-width="1"></line>
    <line x1="275" y1="10" x2="275" y2="210" fill="none" stroke="#000000" stroke-width="1"></line>
    <line x1="75" y1="210" x2="275" y2="210" fill="none" stroke="#000000" stroke-width="1"></line>
    <line x1="75" y1="235" x2="275" y2="235" fill="none" stroke="#000000" stroke-width="1" marker-end="url(#SvgjsMarker1000)"></line>
    <text x="175" y="238.20000076293945" text-anchor="middle">
        <tspan dy="20.8" x="175">X Axis</tspan>
    </text>
    <line x1="50" y1="210" x2="50" y2="10" fill="none" stroke="#000000" stroke-width="1" marker-end="url(#SvgjsMarker1000)"></line>
    <text x="25" y="103.20000076293945" text-anchor="middle" transform="matrix(6.123233995736766e-17,-1,1,6.123233995736766e-17,-93.50000023841858,143.49999976158142)">
        <tspan dy="20.8" x="25">Y Axis</tspan>
    </text>
</svg>