<?xml version="1.0" encoding="UTF-8"?>
<!DOCTYPE svg PUBLIC "-//W3C//DTD SVG 1.1//EN" "http://www.w3.org/Graphics/SVG/1.1/DTD/svg11.dtd">
<svg xmlns="http://www.w3.org/2000/svg" version="1.1" 
    xmlns:xlink="http://www.w3.org/1999/xlink" 
    xmlns:svgjs="http://svgjs.com/svgjs" style="background-color: #fff;" width="425" height="375">
    <defs>
        <marker markerWidth="10" markerHeight="10" refX="5" refY="5" viewBox="0 0 10 10" orient="auto" id="SvgjsMarker1000">
            <path d="M 0 0 L 10 5 L 0 10 L 3 5 z"></path>
        </marker>
    </defs>
    <line x1="75" y1="100" x2="75" y2="300" fill="none" stroke="#000000" stroke-width="1"></line>
    <line x1="75" y1="100" x2="275" y2="100" fill="none" stroke="#000000" stroke-width="1"></line>
    <line x1="115" y1="100" x2="115" y2="300" fill="none" stroke="#000000" stroke-width="1"></line>
    <line x1="75" y1="140" x2="275" y2="140" fill="none" stroke="#000000" stroke-width="1"></line>
    <line x1="155" y1="100" x2="155" y2="300" fill="none" stroke="#000000" stroke-width="1"></line>
    <line x1="75" y1="180" x2="275" y2="180" fill="none" stroke="#000000" stroke-width="1"></line>
    <line x1="195" y1="100" x2="195" y2="300" fill="none" stroke="#000000" stroke-width="1"></line>
    <line x1="75" y1="220" x2="275" y2="220" fill="none" stroke="#000000" stroke-width="1"></line>
    <line x1="235" y1="100" x2="235" y2="300" fill="none" stroke="#000000" stroke-width="1"></line>
    <line x1="75" y1="260" x2="275" y2="260" fill="none" stroke="#000000" stroke-width="1"></line>
    <line x1="275" y1="100" x2="275" y2="300" fill="none" stroke="#000000" stroke-width="1"></line>
    <line x1="75" y1="300" x2="275" y2="300" fill="none" stroke="#000000" stroke-width="1"></line>
    <line x1="275" y1="100" x2="341.6666666666667" y2="40" fill="none" stroke="#000000" stroke-width="1"></line>
    <line x1="275" y1="140" x2="341.6666666666667" y2="80" fill="none" stroke="#000000" stroke-width="1"></line>
    <line x1="275" y1="180" x2="341.6666666666667" y2="120" fill="none" stroke="#000000" stroke-width="1"></line>
    <line x1="275" y1="220" x2="341.6666666666667" y2="160" fill="none" stroke="#000000" stroke-width="1"></line>
    <line x1="275" y1="260" x2="341.6666666666667" y2="200" fill="none" stroke="#000000" stroke-width="1"></line>
    <line x1="275" y1="300" x2="341.6666666666667" y2="240" fill="none" stroke="#000000" stroke-width="1"></line>
    <line x1="75" y1="100" x2="141.66666666666669" y2="40" fill="none" stroke="#000000" stroke-width="1"></line>
    <line x1="288.3333333333333" y1="88" x2="288.3333333333333" y2="288" fill="none" stroke="#000000" stroke-width="1"></line>
    <line x1="88.33333333333333" y1="88" x2="288.3333333333333" y2="88" fill="none" stroke="#000000" stroke-width="1"></line>
    <line x1="115" y1="100" x2="181.66666666666669" y2="40" fill="none" stroke="#000000" stroke-width="1"></line>
    <line x1="301.6666666666667" y1="76" x2="301.6666666666667" y2="276" fill="none" stroke="#000000" stroke-width="1"></line>
    <line x1="101.66666666666667" y1="76" x2="301.6666666666667" y2="76" fill="none" stroke="#000000" stroke-width="1"></line>
    <line x1="155" y1="100" x2="221.66666666666669" y2="40" fill="none" stroke="#000000" stroke-width="1"></line>
    <line x1="315" y1="64" x2="315" y2="264" fill="none" stroke="#000000" stroke-width="1"></line>
    <line x1="115" y1="64" x2="315" y2="64" fill="none" stroke="#000000" stroke-width="1"></line>
    <line x1="195" y1="100" x2="261.6666666666667" y2="40" fill="none" stroke="#000000" stroke-width="1"></line>
    <line x1="328.3333333333333" y1="52" x2="328.3333333333333" y2="252" fill="none" stroke="#000000" stroke-width="1"></line>
    <line x1="128.33333333333334" y1="52" x2="328.3333333333333" y2="52" fill="none" stroke="#000000" stroke-width="1"></line>
    <line x1="235" y1="100" x2="301.6666666666667" y2="40" fill="none" stroke="#000000" stroke-width="1"></line>
    <line x1="341.6666666666667" y1="40" x2="341.6666666666667" y2="240" fill="none" stroke="#000000" stroke-width="1"></line>
    <line x1="141.66666666666669" y1="40" x2="341.6666666666667" y2="40" fill="none" stroke="#000000" stroke-width="1"></line>
    <line x1="75" y1="325" x2="275" y2="325" fill="none" stroke="#000000" stroke-width="1" marker-end="url(#SvgjsMarker1000)"></line>
    <text x="175" y="328.20000076293945" text-anchor="middle">
        <tspan dy="20.8" x="175">X Axis</tspan>
    </text>
    <line x1="50" y1="300" x2="50" y2="100" fill="none" stroke="#000000" stroke-width="1" marker-end="url(#SvgjsMarker1000)"></line>
    <text x="25" y="193.20000076293945" text-anchor="middle" transform="matrix(6.123233995736766e-17,-1,1,6.123233995736766e-17,-183.50000023841858,233.49999976158142)">
        <tspan dy="20.8" x="25">Y Axis</tspan>
    </text>
    <line x1="288.3333333333333" y1="315" x2="355" y2="255" fill="none" stroke="#000000" stroke-width="1" marker-end="url(#SvgjsMarker1000)"></line>
    <text x="340" y="278.20000076293945" text-anchor="middle" transform="matrix(0.7071067811865476,-0.7071067811865476,0.7071067811865476,0.7071067811865476,-107.9521458816779,326.38046532517444)">
        <tspan dy="20.8" x="340">Z Axis</tspan>
    </text>
</svg>