<?xml version="1.0" encoding="UTF-8"?>
<!DOCTYPE svg PUBLIC "-//W3C//DTD SVG 1.1//EN" "http://www.w3.org/Graphics/SVG/1.1/DTD/svg11.dtd">
<svg xmlns="http://www.w3.org/2000/svg" style="background-color: #fff;" 
    xmlns:xlink="http://www.w3.org/1999/xlink" version="1.1" width="700px" height="65px">
    <style>
    text {
        font-family: Helvetica, Arial, sans-serif;
        font-size: 16px;
        fill: #000;    
    }
    </style>
    <text x="15" y="32">message</text>
    <line x1="100" y1="27" x2="130" y2="27" stroke="#000" stroke-width="2" />
    <line x1="120" y1="22" x2="130" y2="27" stroke="#000" stroke-width="2" />
    <line x1="120" y1="32" x2="130" y2="27" stroke="#000" stroke-width="2" />
    <rect x="140" y="10" width="35" height="35" fill="none" stroke="#000" stroke-width="1"/>
    <text x="156" y="35" text-anchor="middle">'b'</text>
    <rect x="178" y="10" width="35" height="35" fill="none" stroke="#000" stroke-width="1"/>
    <text x="194" y="35" text-anchor="middle">'a'</text>
    <rect x="216" y="10" width="35" height="35" fill="none" stroke="#000" stroke-width="1"/>
    <text x="232" y="35" text-anchor="middle">'k'</text>
    <rect x="254" y="10" width="35" height="35" fill="none" stroke="#000" stroke-width="1"/>
    <text x="270" y="35" text-anchor="middle">'e'</text>
    <rect x="292" y="10" width="35" height="35" fill="none" stroke="#000" stroke-width="1"/>
    <text x="308" y="35" text-anchor="middle">'d'</text>
    <rect x="330" y="10" width="35" height="35" fill="none" stroke="#000" stroke-width="1"/>
    <text x="346" y="35" text-anchor="middle">' '</text>
    <rect x="368" y="10" width="35" height="35" fill="none" stroke="#000" stroke-width="1"/>
    <text x="384" y="35" text-anchor="middle">'a'</text>
    <rect x="406" y="10" width="35" height="35" fill="none" stroke="#000" stroke-width="1"/>
    <text x="422" y="35" text-anchor="middle">'p'</text>
    <rect x="444" y="10" width="35" height="35" fill="none" stroke="#000" stroke-width="1"/>
    <text x="460" y="35" text-anchor="middle">'p'</text>
    <rect x="482" y="10" width="35" height="35" fill="none" stroke="#000" stroke-width="1"/>
    <text x="498" y="35" text-anchor="middle">'l'</text>
    <rect x="520" y="10" width="35" height="35" fill="none" stroke="#000" stroke-width="1"/>
    <text x="536" y="35" text-anchor="middle">'e'</text>
    <rect x="558" y="10" width="35" height="35" fill="none" stroke="#000" stroke-width="1"/>
    <text x="574" y="35" text-anchor="middle">'s'</text>
</svg>