<?xml version="1.0" encoding="UTF-8"?>
<!DOCTYPE svg PUBLIC "-//W3C//DTD SVG 1.1//EN" "http://www.w3.org/Graphics/SVG/1.1/DTD/svg11.dtd">
<svg xmlns="http://www.w3.org/2000/svg" style="background-color: #fff;" 
    xmlns:xlink="http://www.w3.org/1999/xlink" version="1.1" width="700px" height="200px">
    <text x="15" y="25" fill="#000000" font-family="Helvetica" font-size="18px">do/while loop</text>
    <g transform="translate(10, 15)">
        <path d="M 71 98 L 111.63 98" fill="none" stroke="#000000" stroke-miterlimit="10"/>
        <path d="M 116.88 98 L 109.88 101.5 L 111.63 98 L 109.88 94.5 Z" fill="#000000" stroke="#000000" stroke-miterlimit="10"/>
        <ellipse cx="36" cy="98" rx="35" ry="35" fill="#ffffff" stroke="#000000" stroke-width="2"/>
        <text x="36" y="102" fill="#000000" font-family="Helvetica" font-size="14px" text-anchor="middle">Start</text>
        <path d="M 439 98 L 501.63 98" fill="none" stroke="#000000" stroke-miterlimit="10"/>
        <path d="M 506.88 98 L 499.88 101.5 L 501.63 98 L 499.88 94.5 Z" fill="#000000" stroke="#000000" stroke-miterlimit="10"/>
        <text x="472" y="92" fill="#000000" font-family="Helvetica" font-size="14px" text-anchor="middle">No</text>
        <path d="M 354 48 L 354 8 L 168 8 L 168 41.63" fill="none" stroke="#000000" stroke-miterlimit="10"/>
        <path d="M 168 46.88 L 164.5 39.88 L 168 41.63 L 171.5 39.88 Z" fill="#000000" stroke="#000000" stroke-miterlimit="10"/>
        <text x="261" y="3" fill="#000000" font-family="Helvetica" font-size="14px" text-anchor="middle">Yes</text>
        <path d="M 354 48 L 439 98 L 354 148 L 269 98 Z" fill="#ffffff" stroke="#000000" stroke-width="2" stroke-miterlimit="10"/>
        <text x="354" y="102" fill="#000000" font-family="Helvetica" font-size="14px" text-anchor="middle">Is while condition true?</text>
        <path d="M 218 98 L 262.63 98" fill="none" stroke="#000000" stroke-miterlimit="10"/>
        <path d="M 267.88 98 L 260.88 101.5 L 262.63 98 L 260.88 94.5 Z" fill="#000000" stroke="#000000" stroke-miterlimit="10"/>
        <rect x="118" y="48" width="100" height="100" rx="7" ry="7" fill="#ffffff" stroke="#000000" stroke-width="2"/>
        <text x="168" y="92" fill="#000000" font-family="Helvetica" font-size="14px" text-anchor="middle">Execute</text>
        <text x="168" y="112" fill="#000000" font-family="Helvetica" font-size="14px" text-anchor="middle">code block.</text>
        <path d="M 538.61 68 L 577.39 68 C 594.29 68 608 81.43 608 98 C 608 114.57 594.29 128 577.39 128 L 538.61 128 C 521.71 128 508 114.57 508 98 C 508 81.43 521.71 68 538.61 68 Z" fill="#ffffff" stroke="#000000" stroke-width="2" stroke-miterlimit="10"/>
        <text x="558" y="102" fill="#000000" font-family="Helvetica" font-size="14px" text-anchor="middle">End</text>
    </g>
</svg>