<?xml version="1.0" encoding="UTF-8"?>
<!DOCTYPE svg PUBLIC "-//W3C//DTD SVG 1.1//EN" "http://www.w3.org/Graphics/SVG/1.1/DTD/svg11.dtd">
<svg xmlns="http://www.w3.org/2000/svg" style="background-color: rgb(255, 255, 255);" 
    xmlns:xlink="http://www.w3.org/1999/xlink" version="1.1" width="700px" height="285px">
    <text x="40" y="30" fill="#000000" font-family="Helvetica" font-size="18px" text-anchor="middle">for loop</text>
    <g>
        <path d="M 110 101 L 143.63 101" fill="none" stroke="#000000" stroke-miterlimit="10"/>
        <path d="M 148.88 101 L 141.88 104.5 L 143.63 101 L 141.88 97.5 Z" fill="#000000" stroke="#000000" stroke-miterlimit="10"/>
        <ellipse cx="60" cy="101" rx="50" ry="50" fill="#ffffff" stroke="#000000" stroke-width="2"/>

        <text x="60" y="105" fill="#000000" font-family="Helvetica" font-size="14px" text-anchor="middle">Start</text>

        <path d="M 250 101 L 283.63 101" fill="none" stroke="#000000" stroke-miterlimit="10"/>
        <path d="M 288.88 101 L 281.88 104.5 L 283.63 101 L 281.88 97.5 Z" fill="#000000" stroke="#000000" stroke-miterlimit="10"/>
        <rect x="150" y="51" width="100" height="100" rx="7" ry="7" fill="#ffffff" stroke="#000000" stroke-width="2"/>

        <text x="200" y="95" fill="#000000" font-family="Helvetica" font-size="14px" text-anchor="middle">Initialize</text>
        <text x="200" y="115" fill="#000000" font-family="Helvetica" font-size="14px" text-anchor="middle">variables.</text>

        <path d="M 340 151 L 340 204.63" fill="none" stroke="#000000" stroke-miterlimit="10"/>
        <path d="M 340 209.88 L 336.5 202.88 L 340 204.63 L 343.5 202.88 Z" fill="#000000" stroke="#000000" stroke-miterlimit="10"/>

        <text x="325" y="175" fill="#000000" font-family="Helvetica" font-size="14px" text-anchor="middle">No</text>
        <text x="405" y="95" fill="#000000" font-family="Helvetica" font-size="14px" text-anchor="middle">Yes</text>

        <path d="M 390 101 L 423.63 101" fill="none" stroke="#000000" stroke-miterlimit="10"/>
        <path d="M 428.88 101 L 421.88 104.5 L 423.63 101 L 421.88 97.5 Z" fill="#000000" stroke="#000000" stroke-miterlimit="10"/>
        <path d="M 340 51 L 390 101 L 340 151 L 290 101 Z" fill="#ffffff" stroke="#000000" stroke-width="2" stroke-miterlimit="10"/>

        <text x="340" y="100" fill="#000000" font-family="Helvetica" font-size="14px" text-anchor="middle">Is condition</text>
        <text x="340" y="120" fill="#000000" font-family="Helvetica" font-size="14px" text-anchor="middle">true?</text>

        <path d="M 320.61 211 L 359.39 211 C 376.29 211 390 224.43 390 241 C 390 257.57 376.29 271 359.39 271 L 320.61 271 C 303.71 271 290 257.57 290 241 C 290 224.43 303.71 211 320.61 211 Z" fill="#ffffff" stroke="#000000" stroke-width="2" stroke-miterlimit="10"/>

        <text x="340" y="245" fill="#000000" font-family="Helvetica" font-size="14px" text-anchor="middle">End</text>

        <path d="M 620 51 L 620 21 L 340 21 L 340 44.63" fill="none" stroke="#000000" stroke-miterlimit="10"/>
        <path d="M 340 49.88 L 336.5 42.88 L 340 44.63 L 343.5 42.88 Z" fill="#000000" stroke="#000000" stroke-miterlimit="10"/>
        <rect x="570" y="51" width="100" height="100" rx="7" ry="7" fill="#ffffff" stroke="#000000" stroke-width="2"/>

        <text x="620" y="95" fill="#000000" font-family="Helvetica" font-size="14px" text-anchor="middle">Run after-loop</text>
        <text x="620" y="115" fill="#000000" font-family="Helvetica" font-size="14px" text-anchor="middle">clause.</text>

        <rect x="0" y="1" width="80" height="20" fill="none" stroke="none"/>

        <path d="M 530 101 L 563.63 101" fill="none" stroke="#000000" stroke-miterlimit="10"/>
        <path d="M 568.88 101 L 561.88 104.5 L 563.63 101 L 561.88 97.5 Z" fill="#000000" stroke="#000000" stroke-miterlimit="10"/>
        <rect x="430" y="51" width="100" height="100" rx="7" ry="7" fill="#ffffff" stroke="#000000" stroke-width="2"/>

        <text x="480" y="95" fill="#000000" font-family="Helvetica" font-size="14px" text-anchor="middle">Execute</text>
        <text x="480" y="115" fill="#000000" font-family="Helvetica" font-size="14px" text-anchor="middle">code block.</text>
    </g>

</svg>