<?xml version="1.0" encoding="UTF-8"?>
<!DOCTYPE svg PUBLIC "-//W3C//DTD SVG 1.1//EN" "http://www.w3.org/Graphics/SVG/1.1/DTD/svg11.dtd">
<svg xmlns="http://www.w3.org/2000/svg" style="background-color: #ffffff;"
    xmlns:xlink="http://www.w3.org/1999/xlink" version="1.1" width="350px" height="300px">
    <defs/>
    <g transform="translate(10,10)">
        <rect x="93" y="0" width="130" height="280" fill="#ffffff" stroke="#000000"/>
        <path d="M 93 40 L 223 40" fill="none" stroke="#000000" stroke-miterlimit="10"/>
        <path d="M 93 80 L 223 80" fill="none" stroke="#000000" stroke-miterlimit="10"/>
        <path d="M 93 120 L 223 120" fill="none" stroke="#000000" stroke-miterlimit="10"/>
        <path d="M 93 160 L 223 160" fill="none" stroke="#000000" stroke-miterlimit="10"/>
        <path d="M 93 200 L 223 200" fill="none" stroke="#000000" stroke-miterlimit="10"/>
        <path d="M 93 240 L 223 240" fill="none" stroke="#000000" stroke-miterlimit="10"/>
        <path d="M 93 0 M 223 0 M 223 40 M 93 40" fill="none" stroke="#000000" stroke-miterlimit="10"/>
        <path d="M 93 0 M 223 0 M 223 40 M 93 40" fill="none" stroke="#000000" stroke-miterlimit="10"/>

        <text x="158" y="24" fill="#000000" font-family="Helvetica" font-size="12px" text-anchor="middle">"bake"</text>

        <path d="M 93 40 M 223 40 M 223 80 M 93 80" fill="none" stroke="#000000" stroke-miterlimit="10"/>
        <path d="M 93 40 M 223 40 M 223 80 M 93 80" fill="none" stroke="#000000" stroke-miterlimit="10"/>

        <text x="158" y="64" fill="#000000" font-family="Helvetica" font-size="12px" text-anchor="middle">"d ap"</text>

        <path d="M 93 80 M 223 80 M 223 120 M 93 120" fill="none" stroke="#000000" stroke-miterlimit="10"/>
        <path d="M 93 80 M 223 80 M 223 120 M 93 120" fill="none" stroke="#000000" stroke-miterlimit="10"/>

        <text x="158" y="104" fill="#000000" font-family="Helvetica" font-size="12px" text-anchor="middle">"ples"</text>

        <path d="M 93 120 M 223 120 M 223 160 M 93 160" fill="none" stroke="#000000" stroke-miterlimit="10"/>
        <path d="M 93 120 M 223 120 M 223 160 M 93 160" fill="none" stroke="#000000" stroke-miterlimit="10"/>
        <path d="M 93 160 M 223 160 M 223 200 M 93 200" fill="none" stroke="#000000" stroke-miterlimit="10"/>
        <path d="M 93 160 M 223 160 M 223 200 M 93 200" fill="none" stroke="#000000" stroke-miterlimit="10"/>
        <path d="M 93 200 M 223 200 M 223 240 M 93 240" fill="none" stroke="#000000" stroke-miterlimit="10"/>
        <path d="M 93 200 M 223 200 M 223 240 M 93 240" fill="none" stroke="#000000" stroke-miterlimit="10"/>

        <text x="158" y="224" fill="#000000" font-family="Helvetica" font-size="12px" text-anchor="middle">314</text>

        <path d="M 93 240 M 223 240 M 223 280 M 93 280" fill="none" stroke="#000000" stroke-miterlimit="10"/>
        <path d="M 93 240 M 223 240 M 223 280 M 93 280" fill="none" stroke="#000000" stroke-miterlimit="10"/>

        <text x="158" y="264" fill="#000000" font-family="Helvetica" font-size="12px" text-anchor="middle">[reference]</text>

        <path d="M 50 220 L 86.63 220" fill="none" stroke="#000000" stroke-miterlimit="10" pointer-events="stroke"/>
        <path d="M 91.88 220 L 84.88 223.5 L 86.63 220 L 84.88 216.5 Z" fill="#000000" stroke="#000000" stroke-miterlimit="10"/>

        <text x="30" y="224" fill="#000000" font-family="Helvetica" font-size="12px" text-anchor="middle">int n</text>

        <path d="M 60 260 L 86.63 260" fill="none" stroke="#000000" stroke-miterlimit="10" pointer-events="stroke"/>
        <path d="M 91.88 260 L 84.88 263.5 L 86.63 260 L 84.88 256.5 Z" fill="#000000" stroke="#000000" stroke-miterlimit="10"/>

        <text x="30" y="264" fill="#000000" font-family="Helvetica" font-size="12px" text-anchor="middle">String s</text>

        <path d="M 271 0 L 266 0 Q 261 0 261 10 L 261 50 Q 261 60 256 60 L 253.5 60 Q 251 60 256 60 L 258.5 60 Q 261 60 261 70 L 261 110 Q 261 120 266 120 L 271 120" fill="none" stroke="#000000" stroke-miterlimit="10" transform="rotate(-180,261,60)"/>
        <path d="M 223 260 L 303 260 L 303 60 L 275.37 60" fill="none" stroke="#000000" stroke-miterlimit="10" pointer-events="stroke"/>
        <path d="M 270.12 60 L 277.12 56.5 L 275.37 60 L 277.12 63.5 Z" fill="#000000" stroke="#000000" stroke-miterlimit="10"/>
    </g>

</svg>