<?xml version="1.0" encoding="UTF-8"?>
<!DOCTYPE svg PUBLIC "-//W3C//DTD SVG 1.1//EN" "http://www.w3.org/Graphics/SVG/1.1/DTD/svg11.dtd">
<svg xmlns="http://www.w3.org/2000/svg" style="background-color: #fff;"
    xmlns:xlink="http://www.w3.org/1999/xlink" version="1.1" width="500px" height="325px">
    <text x="15" y="25" fill="#000000" font-family="Helvetica" font-size="18px">while loop</text>
    <g transform="translate(10, 20)">
        <path d="M 71 107 L 109.63 107" fill="none" stroke="#000000" stroke-miterlimit="10"/>
        <path d="M 114.88 107 L 107.88 110.5 L 109.63 107 L 107.88 103.5 Z" fill="#000000" stroke="#000000" stroke-miterlimit="10"/>
        <ellipse cx="36" cy="107" rx="35" ry="35" fill="#ffffff" stroke="#000000" stroke-width="2"/>
        <text x="36" y="111" fill="#000000" font-family="Helvetica" font-size="14px" text-anchor="middle">Start</text>
        <path d="M 286 107 L 359.63 107" fill="none" stroke="#000000" stroke-miterlimit="10"/>
        <path d="M 364.88 107 L 357.88 110.5 L 359.63 107 L 357.88 103.5 Z" fill="#000000" stroke="#000000" stroke-miterlimit="10"/>
        <text x="322" y="103" fill="#000000" font-family="Helvetica" font-size="14px" text-anchor="middle">Yes</text>
        <path d="M 201 157 L 201 213.63" fill="none" stroke="#000000" stroke-miterlimit="10"/>
        <path d="M 201 218.88 L 197.5 211.88 L 201 213.63 L 204.5 211.88 Z" fill="#000000" stroke="#000000" stroke-miterlimit="10"/>
        <text x="210" y="192" fill="#000000" font-family="Helvetica" font-size="14px" text-anchor="middle">No</text>
        <path d="M 201 57 L 286 107 L 201 157 L 116 107 Z" fill="#ffffff" stroke="#000000" stroke-width="2" stroke-miterlimit="10"/>
        <text x="201" y="101" fill="#000000" font-family="Helvetica" font-size="14px" text-anchor="middle">Is while</text>
        <text x="201" y="120" fill="#000000" font-family="Helvetica" font-size="14px" text-anchor="middle">condition true?</text>
        <path d="M 416 57 L 416 7 L 201 7 L 201 50.63" fill="none" stroke="#000000" stroke-miterlimit="10"/>
        <path d="M 201 55.88 L 197.5 48.88 L 201 50.63 L 204.5 48.88 Z" fill="#000000" stroke="#000000" stroke-miterlimit="10"/>
        <rect x="366" y="57" width="100" height="100" rx="7" ry="7" fill="#ffffff" stroke="#000000" stroke-width="2"/>
        <text x="416" y="105" fill="#000000" font-family="Helvetica" font-size="14px" text-anchor="middle">Execute code</text>
        <text x="416" y="125" fill="#000000" font-family="Helvetica" font-size="14px" text-anchor="middle">block.</text>
        <path d="M 181.61 220 L 220.39 220 C 237.29 220 251 233.43 251 250 C 251 266.57 237.29 280 220.39 280 L 181.61 280 C 164.71 280 151 266.57 151 250 C 151 233.43 164.71 220 181.61 220 Z" fill="#ffffff" stroke="#000000" stroke-width="2" stroke-miterlimit="10"/>
        <text x="201" y="254" fill="#000000" font-family="Helvetica" font-size="14px" text-anchor="middle">End</text>
    </g>

</svg>