<?xml version="1.0" encoding="UTF-8"?>
<!DOCTYPE svg PUBLIC "-//W3C//DTD SVG 1.1//EN" "http://www.w3.org/Graphics/SVG/1.1/DTD/svg11.dtd">
<svg xmlns="http://www.w3.org/2000/svg" style="background-color: #ffffff;" 
    xmlns:xlink="http://www.w3.org/1999/xlink" version="1.1" width="560px" height="135px">
    <style>
    text {
        font-family: Helvetica, Arial, sans-serif;
        font-size: 12px;
    }   
    </style>
    <g transform="translate(5,5)">
        <rect x="3" y="37" width="120" height="80" fill="#ffffff" stroke="#000000"/>

        <text x="63" y="72" fill="#000000" text-anchor="middle">OS</text>
        <text x="63" y="90" fill="#000000" text-anchor="middle">MySQL 5</text>

        <rect x="143" y="37" width="120" height="80" fill="#ffffff" stroke="#000000"/>

        <text x="203" y="72" fill="#000000" text-anchor="middle">OS</text>
        <text x="203" y="90" fill="#000000" text-anchor="middle">MySQL 6</text>

        <rect x="283" y="37" width="120" height="80" fill="#ffffff" stroke="#000000"/>

        <text x="343" y="72" fill="#000000" text-anchor="middle">OS</text>
        <text x="343" y="90" fill="#000000" text-anchor="middle">MySQL 7</text>

        <rect x="423" y="37" width="120" height="80" fill="#ffffff" stroke="#000000"/>

        <text x="483" y="72" fill="#000000" text-anchor="middle">OS</text>
        <text x="483" y="90" fill="#000000" text-anchor="middle">MySQL 8</text>

        <rect x="423" y="0" width="40" height="20" fill="none" stroke="none"/>

        <text x="443" y="18" fill="#000000" text-anchor="middle">Machine</text>

        <rect x="283" y="0" width="40" height="20" fill="none" stroke="none"/>

        <text x="303" y="18" fill="#000000" text-anchor="middle">Machine</text>

        <rect x="143" y="0" width="40" height="20" fill="none" stroke="none"/>

        <text x="163" y="18" fill="#000000" text-anchor="middle">Machine</text>

        <rect x="3" y="0" width="40" height="20" fill="none" stroke="none"/>

        <text x="25" y="18" fill="#000000" text-anchor="middle">Machine</text>

    </g>

</svg>