<?xml version="1.0" encoding="UTF-8"?>
<!DOCTYPE svg PUBLIC "-//W3C//DTD SVG 1.1//EN" "http://www.w3.org/Graphics/SVG/1.1/DTD/svg11.dtd">
<svg xmlns="http://www.w3.org/2000/svg" style="background-color: #ffffff;"
    xmlns:xlink="http://www.w3.org/1999/xlink" version="1.1" width="650px" height="385px">
    <defs/>
    <g transform="translate(10, 10)">
        <rect x="0" y="0" width="190" height="120" fill="#ffffff" stroke="#000000"/>
        <path d="M 0 30 L 190 30" fill="none" stroke="#000000" stroke-miterlimit="10"/>
        <path d="M 0 60 L 190 60" fill="none" stroke="#000000" stroke-miterlimit="10"/>
        <path d="M 0 90 L 190 90" fill="none" stroke="#000000" stroke-miterlimit="10"/>
        <path d="M 95 0 L 95 120" fill="none" stroke="#000000" stroke-miterlimit="10"/>
        <path d="M 0 0 M 190 0 M 190 30 M 0 30" fill="none" stroke="#000000" stroke-miterlimit="10"/>
        <rect x="0" y="0" width="95" height="30" fill="none" stroke="none"/>
        <path d="M 0 0 M 95 0 M 95 30 M 0 30" fill="none" stroke="#000000" stroke-miterlimit="10"/>
        <text x="48" y="19" fill="#000000" font-family="Helvetica" font-size="12px" font-weight="bold" text-anchor="middle">artist_id</text>
        <rect x="95" y="0" width="95" height="30" fill="none" stroke="none"/>
        <path d="M 95 0 M 190 0 M 190 30 M 95 30" fill="none" stroke="#000000" stroke-miterlimit="10"/>
        <text x="143" y="19" fill="#000000" font-family="Helvetica" font-size="12px" font-weight="bold" text-anchor="middle">name</text>
        <path d="M 0 30 M 190 30 M 190 60 M 0 60" fill="none" stroke="#000000" stroke-miterlimit="10"/>      
        <path d="M 0 30 M 95 30 M 95 60 M 0 60" fill="none" stroke="#000000" stroke-miterlimit="10"/>
        <text x="48" y="49" fill="#000000" font-family="Helvetica" font-size="12px" text-anchor="middle">1</text>      
        <path d="M 95 30 M 190 30 M 190 60 M 95 60" fill="none" stroke="#000000" stroke-miterlimit="10"/>
        <text x="143" y="49" fill="#000000" font-family="Helvetica" font-size="12px" text-anchor="middle">Drake</text>
        <path d="M 0 60 M 190 60 M 190 90 M 0 90" fill="none" stroke="#000000" stroke-miterlimit="10"/>      
        <path d="M 0 60 M 95 60 M 95 90 M 0 90" fill="none" stroke="#000000" stroke-miterlimit="10"/>
        <text x="48" y="79" fill="#000000" font-family="Helvetica" font-size="12px" text-anchor="middle">2</text>    
        <path d="M 95 60 M 190 60 M 190 90 M 95 90" fill="none" stroke="#000000" stroke-miterlimit="10"/>
        <text x="143" y="79" fill="#000000" font-family="Helvetica" font-size="12px" text-anchor="middle">Clean Bandit</text>
        <path d="M 0 90 M 190 90 M 190 120 M 0 120" fill="none" stroke="#000000" stroke-miterlimit="10"/>       
        <path d="M 0 90 M 95 90 M 95 120 M 0 120" fill="none" stroke="#000000" stroke-miterlimit="10"/>
        <text x="48" y="109" fill="#000000" font-family="Helvetica" font-size="12px" text-anchor="middle">3</text>      
        <path d="M 95 90 M 190 90 M 190 120 M 95 120" fill="none" stroke="#000000" stroke-miterlimit="10"/>
        <text x="143" y="109" fill="#000000" font-family="Helvetica" font-size="12px" text-anchor="middle">Ariana Grande</text>
        <rect x="0" y="160" width="530" height="200" fill="#ffffff" stroke="#000000"/>
        <path d="M 0 193 L 530 193" fill="none" stroke="#000000" stroke-miterlimit="10"/>
        <path d="M 0 227 L 530 227" fill="none" stroke="#000000" stroke-miterlimit="10"/>
        <path d="M 0 260 L 530 260" fill="none" stroke="#000000" stroke-miterlimit="10"/>
        <path d="M 0 293 L 530 293" fill="none" stroke="#000000" stroke-miterlimit="10"/>
        <path d="M 0 327 L 530 327" fill="none" stroke="#000000" stroke-miterlimit="10"/>
        <path d="M 177 160 L 177 360" fill="none" stroke="#000000" stroke-miterlimit="10"/>
        <path d="M 453 160 L 453 360" fill="none" stroke="#000000" stroke-miterlimit="10"/>
        <path d="M 0 160 M 530 160 M 530 193 M 0 193" fill="none" stroke="#000000" stroke-miterlimit="10"/>      
        <path d="M 0 160 M 177 160 M 177 193 M 0 193" fill="none" stroke="#000000" stroke-miterlimit="10"/>
        <text x="89" y="180" fill="#000000" font-family="Helvetica" font-size="12px" font-weight="bold" text-anchor="middle">song_id</text>       
        <path d="M 177 160 M 453 160 M 453 193 M 177 193" fill="none" stroke="#000000" stroke-miterlimit="10"/>
        <text x="315" y="180" fill="#000000" font-family="Helvetica" font-size="12px" font-weight="bold" text-anchor="middle">title</text>       
        <path d="M 453 160 M 530 160 M 530 193 M 453 193" fill="none" stroke="#000000" stroke-miterlimit="10"/>
        <text x="492" y="180" fill="#000000" font-family="Helvetica" font-size="12px" font-weight="bold" text-anchor="middle">artist_id</text>
        <path d="M 0 193 M 530 193 M 530 227 M 0 227" fill="none" stroke="#000000" stroke-miterlimit="10"/>     
        <path d="M 0 193 M 177 193 M 177 227 M 0 227" fill="none" stroke="#000000" stroke-miterlimit="10"/>
        <text x="89" y="214" fill="#000000" font-family="Helvetica" font-size="12px" text-anchor="middle">5knuzwU65gJK7IF5yJsua.</text>      
        <path d="M 177 193 M 453 193 M 453 227 M 177 227" fill="none" stroke="#000000" stroke-miterlimit="10"/>
        <text x="315" y="214" fill="#000000" font-family="Helvetica" font-size="12px" text-anchor="middle">Rockabye (feat. Sean Paul &amp; Anne-Marie)</text>       
        <path d="M 453 193 M 530 193 M 530 227 M 453 227" fill="none" stroke="#000000" stroke-miterlimit="10"/>
        <text x="492" y="214" fill="#000000" font-family="Helvetica" font-size="12px" text-anchor="middle">2</text>
        <path d="M 0 227 M 530 227 M 530 260 M 0 260" fill="none" stroke="#000000" stroke-miterlimit="10"/>      
        <path d="M 0 227 M 177 227 M 177 260 M 0 260" fill="none" stroke="#000000" stroke-miterlimit="10"/>
        <text x="89" y="247" fill="#000000" font-family="Helvetica" font-size="12px" text-anchor="middle">7hDc8b7IXETo14hHIHdnh</text>       
        <path d="M 177 227 M 453 227 M 453 260 M 177 260" fill="none" stroke="#000000" stroke-miterlimit="10"/>
        <text x="315" y="247" fill="#000000" font-family="Helvetica" font-size="12px" text-anchor="middle">Passionfruit</text>       
        <path d="M 453 227 M 530 227 M 530 260 M 453 260" fill="none" stroke="#000000" stroke-miterlimit="10"/>
        <text x="492" y="247" fill="#000000" font-family="Helvetica" font-size="12px" text-anchor="middle">1</text>
        <path d="M 0 260 M 530 260 M 530 293 M 0 293" fill="none" stroke="#000000" stroke-miterlimit="10"/>       
        <path d="M 0 260 M 177 260 M 177 293 M 0 293" fill="none" stroke="#000000" stroke-miterlimit="10"/>
        <text x="89" y="280" fill="#000000" font-family="Helvetica" font-size="12px" text-anchor="middle">4pLwZjInHj3SimIyN9SnO</text>       
        <path d="M 177 260 M 453 260 M 453 293 M 177 293" fill="none" stroke="#000000" stroke-miterlimit="10"/>
        <text x="315" y="280" fill="#000000" font-family="Helvetica" font-size="12px" text-anchor="middle">Side To Side</text>    
        <path d="M 453 260 M 530 260 M 530 293 M 453 293" fill="none" stroke="#000000" stroke-miterlimit="10"/>
        <text x="492" y="280" fill="#000000" font-family="Helvetica" font-size="12px" text-anchor="middle">3</text>
        <path d="M 0 293 M 530 293 M 530 327 M 0 327" fill="none" stroke="#000000" stroke-miterlimit="10"/>       
        <path d="M 0 293 M 177 293 M 177 327 M 0 327" fill="none" stroke="#000000" stroke-miterlimit="10"/>
        <text x="89" y="314" fill="#000000" font-family="Helvetica" font-size="12px" text-anchor="middle">343YBumqHu19cGoGARUTs</text>      
        <path d="M 177 293 M 453 293 M 453 327 M 177 327" fill="none" stroke="#000000" stroke-miterlimit="10"/>
        <text x="315" y="314" fill="#000000" font-family="Helvetica" font-size="12px" text-anchor="middle">Fake Love</text>      
        <path d="M 453 293 M 530 293 M 530 327 M 453 327" fill="none" stroke="#000000" stroke-miterlimit="10"/>
        <text x="492" y="314" fill="#000000" font-family="Helvetica" font-size="12px" text-anchor="middle">1</text>
        <path d="M 0 327 M 530 327 M 530 360 M 0 360" fill="none" stroke="#000000" stroke-miterlimit="10"/>
        <rect x="0" y="327" width="177" height="33" fill="none" stroke="none"/>
        <path d="M 0 327 M 177 327 M 177 360 M 0 360" fill="none" stroke="#000000" stroke-miterlimit="10"/>
        <text x="89" y="347" fill="#000000" font-family="Helvetica" font-size="12px" text-anchor="middle">1x5sYLZiu9r5E43kMlt9f</text>       
        <path d="M 177 327 M 453 327 M 453 360 M 177 360" fill="none" stroke="#000000" stroke-miterlimit="10"/>
        <text x="315" y="347" fill="#000000" font-family="Helvetica" font-size="12px" text-anchor="middle">Symphony (feat. Zara Larsson)</text>     
        <path d="M 453 327 M 530 327 M 530 360 M 453 360" fill="none" stroke="#000000" stroke-miterlimit="10"/>
        <text x="492" y="347" fill="#000000" font-family="Helvetica" font-size="12px" text-anchor="middle">2</text>
        <path d="M 190 45 L 550 45 L 550 243.5 L 536.37 243.5" fill="none" stroke="#000000" stroke-miterlimit="10"/>
        <path d="M 531.12 243.5 L 538.12 240 L 536.37 243.5 L 538.12 247 Z" fill="#000000" stroke="#000000" stroke-miterlimit="10"/>
        <path d="M 190 45 L 550 45 L 550 310 L 536.37 310" fill="none" stroke="#000000" stroke-miterlimit="10"/>
        <path d="M 531.12 310 L 538.12 306.5 L 536.37 310 L 538.12 313.5 Z" fill="#000000" stroke="#000000" stroke-miterlimit="10"/>
        <path d="M 190 75 L 570 75 L 570 210 L 536.37 210" fill="none" stroke="#000000" stroke-miterlimit="10"/>
        <path d="M 531.12 210 L 538.12 206.5 L 536.37 210 L 538.12 213.5 Z" fill="#000000" stroke="#000000" stroke-miterlimit="10"/>
        <path d="M 190 75 L 570 75 L 570 343.5 L 536.37 343.5" fill="none" stroke="#000000" stroke-miterlimit="10"/>
        <path d="M 531.12 343.5 L 538.12 340 L 536.37 343.5 L 538.12 347 Z" fill="#000000" stroke="#000000" stroke-miterlimit="10"/>
        <path d="M 190 105 L 600 105 L 600 276.5 L 536.37 276.5" fill="none" stroke="#000000" stroke-miterlimit="10"/>
        <path d="M 531.12 276.5 L 538.12 273 L 536.37 276.5 L 538.12 280 Z" fill="#000000" stroke="#000000" stroke-miterlimit="10"/>
    </g>
</svg>