<?xml version="1.0" encoding="UTF-8"?>
<!DOCTYPE svg PUBLIC "-//W3C//DTD SVG 1.1//EN" "http://www.w3.org/Graphics/SVG/1.1/DTD/svg11.dtd">
<svg xmlns="http://www.w3.org/2000/svg" style="background-color: #ffffff;"
    xmlns:xlink="http://www.w3.org/1999/xlink" version="1.1" width="535px" height="625px">
    <defs/>
    <g transform="translate(10,10)">
        <rect x="77" y="240" width="360" height="211" fill="#ffffff" stroke="#000000"/>
        <path d="M 77 271 L 437 271" fill="none" stroke="#000000" stroke-miterlimit="10"/>
        <path d="M 77 303 L 437 303" fill="none" stroke="#000000" stroke-miterlimit="10"/>
        <path d="M 77 334 L 437 334" fill="none" stroke="#000000" stroke-miterlimit="10"/>
        <path d="M 77 366 L 437 366" fill="none" stroke="#000000" stroke-miterlimit="10"/>
        <path d="M 77 397 L 437 397" fill="none" stroke="#000000" stroke-miterlimit="10"/>
        <path d="M 77 420 L 437 420" fill="none" stroke="#000000" stroke-miterlimit="10"/>
        <path d="M 257 240 L 257 451" fill="none" stroke="#000000" stroke-miterlimit="10"/>
        <path d="M 77 240 M 437 240 M 437 271 M 77 271" fill="none" stroke="#000000" stroke-miterlimit="10"/>
        <rect x="77" y="240" width="180" height="31" fill="none" stroke="none"/>
        <path d="M 77 240 M 257 240 M 257 271 M 77 271" fill="none" stroke="#000000" stroke-miterlimit="10"/>
        <text x="167" y="259" fill="#000000" font-family="Helvetica" font-size="12px" font-weight="bold" text-anchor="middle">artist_id</text>
        <path d="M 257 240 M 437 240 M 437 271 M 257 271" fill="none" stroke="#000000" stroke-miterlimit="10"/>
        <text x="347" y="259" fill="#000000" font-family="Helvetica" font-size="12px" font-weight="bold" text-anchor="middle">song_id</text>
        <path d="M 77 271 M 437 271 M 437 303 M 77 303" fill="none" stroke="#000000" stroke-miterlimit="10"/>     
        <path d="M 77 271 M 257 271 M 257 303 M 77 303" fill="none" stroke="#000000" stroke-miterlimit="10"/>
        <text x="167" y="291" fill="#000000" font-family="Helvetica" font-size="12px" text-anchor="middle">1</text>      
        <path d="M 257 271 M 437 271 M 437 303 M 257 303" fill="none" stroke="#000000" stroke-miterlimit="10"/>
        <text x="347" y="291" fill="#000000" font-family="Helvetica" font-size="12px" text-anchor="middle">5knuzwU65gJK7IF5yJsua</text>
        <path d="M 77 303 M 437 303 M 437 334 M 77 334" fill="none" stroke="#000000" stroke-miterlimit="10"/>    
        <path d="M 77 303 M 257 303 M 257 334 M 77 334" fill="none" stroke="#000000" stroke-miterlimit="10"/>
        <text x="167" y="322" fill="#000000" font-family="Helvetica" font-size="12px" text-anchor="middle">2</text>      
        <path d="M 257 303 M 437 303 M 437 334 M 257 334" fill="none" stroke="#000000" stroke-miterlimit="10"/>
        <text x="347" y="322" fill="#000000" font-family="Helvetica" font-size="12px" text-anchor="middle">5knuzwU65gJK7IF5yJsua</text>
        <path d="M 77 334 M 437 334 M 437 366 M 77 366" fill="none" stroke="#000000" stroke-miterlimit="10"/>       
        <path d="M 77 334 M 257 334 M 257 366 M 77 366" fill="none" stroke="#000000" stroke-miterlimit="10"/>
        <text x="167" y="354" fill="#000000" font-family="Helvetica" font-size="12px" text-anchor="middle">3</text>      
        <path d="M 257 334 M 437 334 M 437 366 M 257 366" fill="none" stroke="#000000" stroke-miterlimit="10"/>
        <text x="347" y="354" fill="#000000" font-family="Helvetica" font-size="12px" text-anchor="middle">5knuzwU65gJK7IF5yJsua</text>
        <path d="M 77 366 M 437 366 M 437 397 M 77 397" fill="none" stroke="#000000" stroke-miterlimit="10"/>      
        <path d="M 77 366 M 257 366 M 257 397 M 77 397" fill="none" stroke="#000000" stroke-miterlimit="10"/>
        <text x="167" y="385" fill="#000000" font-family="Helvetica" font-size="12px" text-anchor="middle">4</text>     
        <path d="M 257 366 M 437 366 M 437 397 M 257 397" fill="none" stroke="#000000" stroke-miterlimit="10"/>
        <text x="347" y="385" fill="#000000" font-family="Helvetica" font-size="12px" text-anchor="middle">6kex4EBAj0WHXDKZMEJaa</text>
        <path d="M 77 397 M 437 397 M 437 420 M 77 420" fill="none" stroke="#000000" stroke-miterlimit="10"/>     
        <path d="M 77 397 M 257 397 M 257 420 M 77 420" fill="none" stroke="#000000" stroke-miterlimit="10"/>
        <text x="167" y="412" fill="#000000" font-family="Helvetica" font-size="12px" text-anchor="middle">5</text>       
        <path d="M 257 397 M 437 397 M 437 420 M 257 420" fill="none" stroke="#000000" stroke-miterlimit="10"/>
        <text x="347" y="412" fill="#000000" font-family="Helvetica" font-size="12px" text-anchor="middle">6kex4EBAj0WHXDKZMEJaa</text>
        <path d="M 77 420 M 437 420 M 437 451 M 77 451" fill="none" stroke="#000000" stroke-miterlimit="10"/>       
        <path d="M 77 420 M 257 420 M 257 451 M 77 451" fill="none" stroke="#000000" stroke-miterlimit="10"/>
        <text x="167" y="439" fill="#000000" font-family="Helvetica" font-size="12px" text-anchor="middle">6</text>       
        <path d="M 257 420 M 437 420 M 437 451 M 257 451" fill="none" stroke="#000000" stroke-miterlimit="10"/>
        <text x="347" y="439" fill="#000000" font-family="Helvetica" font-size="12px" text-anchor="middle">6kex4EBAj0WHXDKZMEJaa</text>
        <rect x="102" y="490" width="280" height="100" fill="#ffffff" stroke="#000000"/>
        <path d="M 102 523 L 382 523" fill="none" stroke="#000000" stroke-miterlimit="10"/>
        <path d="M 102 557 L 382 557" fill="none" stroke="#000000" stroke-miterlimit="10"/>
        <path d="M 270 490 L 270 590" fill="none" stroke="#000000" stroke-miterlimit="10"/>
        <path d="M 102 490 M 382 490 M 382 523 M 102 523" fill="none" stroke="#000000" stroke-miterlimit="10"/>       
        <path d="M 102 490 M 270 490 M 270 523 M 102 523" fill="none" stroke="#000000" stroke-miterlimit="10"/>
        <text x="186" y="510" fill="#000000" font-family="Helvetica" font-size="12px" font-weight="bold" text-anchor="middle">song_id</text>       
        <path d="M 270 490 M 382 490 M 382 523 M 270 523" fill="none" stroke="#000000" stroke-miterlimit="10"/>
        <text x="326" y="510" fill="#000000" font-family="Helvetica" font-size="12px" font-weight="bold" text-anchor="middle">title</text>
        <path d="M 102 523 M 382 523 M 382 557 M 102 557" fill="none" stroke="#000000" stroke-miterlimit="10"/>       
        <path d="M 102 523 M 270 523 M 270 557 M 102 557" fill="none" stroke="#000000" stroke-miterlimit="10"/>
        <text x="186" y="544" fill="#000000" font-family="Helvetica" font-size="12px" text-anchor="middle">5knuzwU65gJK7IF5yJsua</text>      
        <path d="M 270 523 M 382 523 M 382 557 M 270 557" fill="none" stroke="#000000" stroke-miterlimit="10"/>
        <text x="326" y="544" fill="#000000" font-family="Helvetica" font-size="12px" text-anchor="middle">Rockabye</text>
        <path d="M 102 557 M 382 557 M 382 590 M 102 590" fill="none" stroke="#000000" stroke-miterlimit="10"/>      
        <path d="M 102 557 M 270 557 M 270 590 M 102 590" fill="none" stroke="#000000" stroke-miterlimit="10"/>
        <text x="186" y="577" fill="#000000" font-family="Helvetica" font-size="12px" text-anchor="middle">6kex4EBAj0WHXDKZMEJaa</text>      
        <path d="M 270 557 M 382 557 M 382 590 M 270 590" fill="none" stroke="#000000" stroke-miterlimit="10"/>
        <text x="326" y="577" fill="#000000" font-family="Helvetica" font-size="12px" text-anchor="middle">Swalla</text>
        <path d="M 382 540 L 457 540 L 457 287 L 443.37 287" fill="none" stroke="#000000" stroke-miterlimit="10"/>
        <path d="M 438.12 287 L 445.12 283.5 L 443.37 287 L 445.12 290.5 Z" fill="#000000" stroke="#000000" stroke-miterlimit="10"/>
        <path d="M 382 540 L 467 540 L 467 318.5 L 443.37 318.5" fill="none" stroke="#000000" stroke-miterlimit="10"/>
        <path d="M 438.12 318.5 L 445.12 315 L 443.37 318.5 L 445.12 322 Z" fill="#000000" stroke="#000000" stroke-miterlimit="10"/>
        <path d="M 382 540 L 477 540 L 477 350 L 443.37 350" fill="none" stroke="#000000" stroke-miterlimit="10"/>
        <path d="M 438.12 350 L 445.12 346.5 L 443.37 350 L 445.12 353.5 Z" fill="#000000" stroke="#000000" stroke-miterlimit="10"/>
        <path d="M 382 573.5 L 487 573.5 L 487 381.5 L 443.37 381.5" fill="none" stroke="#000000" stroke-miterlimit="10"/>
        <path d="M 438.12 381.5 L 445.12 378 L 443.37 381.5 L 445.12 385 Z" fill="#000000" stroke="#000000" stroke-miterlimit="10"/>
        <path d="M 382 573.5 L 497 573.5 L 497 408.5 L 443.37 408.5" fill="none" stroke="#000000" stroke-miterlimit="10"/>
        <path d="M 438.12 408.5 L 445.12 405 L 443.37 408.5 L 445.12 412 Z" fill="#000000" stroke="#000000" stroke-miterlimit="10"/>
        <path d="M 382 573.5 L 507 573.5 L 507 435.5 L 443.37 435.5" fill="none" stroke="#000000" stroke-miterlimit="10"/>
        <path d="M 438.12 435.5 L 445.12 432 L 443.37 435.5 L 445.12 439 Z" fill="#000000" stroke="#000000" stroke-miterlimit="10"/>
        <path d="M 137 45 L 137 35 L 57 35 L 57 287 L 70.63 287" fill="none" stroke="#000000" stroke-miterlimit="10"/>
        <path d="M 75.88 287 L 68.88 290.5 L 70.63 287 L 68.88 283.5 Z" fill="#000000" stroke="#000000" stroke-miterlimit="10"/>
        <path d="M 137 75 L 137 65 L 47 65 L 47 318.5 L 70.63 318.5" fill="none" stroke="#000000" stroke-miterlimit="10"/>
        <path d="M 75.88 318.5 L 68.88 322 L 70.63 318.5 L 68.88 315 Z" fill="#000000" stroke="#000000" stroke-miterlimit="10"/>
        <rect x="137" y="0" width="210" height="210" fill="#ffffff" stroke="#000000"/>
        <path d="M 137 30 L 347 30" fill="none" stroke="#000000" stroke-miterlimit="10"/>
        <path d="M 137 60 L 347 60" fill="none" stroke="#000000" stroke-miterlimit="10"/>
        <path d="M 137 90 L 347 90" fill="none" stroke="#000000" stroke-miterlimit="10"/>
        <path d="M 137 120 L 347 120" fill="none" stroke="#000000" stroke-miterlimit="10"/>
        <path d="M 137 150 L 347 150" fill="none" stroke="#000000" stroke-miterlimit="10"/>
        <path d="M 137 180 L 347 180" fill="none" stroke="#000000" stroke-miterlimit="10"/>
        <path d="M 237 0 L 237 210" fill="none" stroke="#000000" stroke-miterlimit="10"/>
        <path d="M 137 0 M 347 0 M 347 30 M 137 30" fill="none" stroke="#000000" stroke-miterlimit="10"/>     
        <path d="M 137 0 M 237 0 M 237 30 M 137 30" fill="none" stroke="#000000" stroke-miterlimit="10"/>
        <text x="187" y="19" fill="#000000" font-family="Helvetica" font-size="12px" font-weight="bold" text-anchor="middle">artist_id</text>        
        <path d="M 237 0 M 347 0 M 347 30 M 237 30" fill="none" stroke="#000000" stroke-miterlimit="10"/>
        <text x="292" y="19" fill="#000000" font-family="Helvetica" font-size="12px" font-weight="bold" text-anchor="middle">name</text>
        <path d="M 137 30 M 347 30 M 347 60 M 137 60" fill="none" stroke="#000000" stroke-miterlimit="10"/>      
        <path d="M 137 30 M 237 30 M 237 60 M 137 60" fill="none" stroke="#000000" stroke-miterlimit="10"/>
        <text x="187" y="49" fill="#000000" font-family="Helvetica" font-size="12px" text-anchor="middle">1</text>     
        <path d="M 237 30 M 347 30 M 347 60 M 237 60" fill="none" stroke="#000000" stroke-miterlimit="10"/>
        <text x="292" y="49" fill="#000000" font-family="Helvetica" font-size="12px" text-anchor="middle">Clean Bandit</text>
        <path d="M 137 60 M 347 60 M 347 90 M 137 90" fill="none" stroke="#000000" stroke-miterlimit="10"/>       
        <path d="M 137 60 M 237 60 M 237 90 M 137 90" fill="none" stroke="#000000" stroke-miterlimit="10"/>
        <text x="187" y="79" fill="#000000" font-family="Helvetica" font-size="12px" text-anchor="middle">2</text>      
        <path d="M 237 60 M 347 60 M 347 90 M 237 90" fill="none" stroke="#000000" stroke-miterlimit="10"/>
        <text x="292" y="79" fill="#000000" font-family="Helvetica" font-size="12px" text-anchor="middle">Sean Paul</text>
        <path d="M 137 90 M 347 90 M 347 120 M 137 120" fill="none" stroke="#000000" stroke-miterlimit="10"/>      
        <path d="M 137 90 M 237 90 M 237 120 M 137 120" fill="none" stroke="#000000" stroke-miterlimit="10"/>
        <text x="187" y="109" fill="#000000" font-family="Helvetica" font-size="12px" text-anchor="middle">3</text>    
        <path d="M 237 90 M 347 90 M 347 120 M 237 120" fill="none" stroke="#000000" stroke-miterlimit="10"/>
        <text x="292" y="109" fill="#000000" font-family="Helvetica" font-size="12px" text-anchor="middle">Anne-Marie</text>
        <path d="M 137 120 M 347 120 M 347 150 M 137 150" fill="none" stroke="#000000" stroke-miterlimit="10"/>      
        <path d="M 137 120 M 237 120 M 237 150 M 137 150" fill="none" stroke="#000000" stroke-miterlimit="10"/>
        <text x="187" y="139" fill="#000000" font-family="Helvetica" font-size="12px" text-anchor="middle">4</text>       
        <path d="M 237 120 M 347 120 M 347 150 M 237 150" fill="none" stroke="#000000" stroke-miterlimit="10"/>
        <text x="292" y="139" fill="#000000" font-family="Helvetica" font-size="12px" text-anchor="middle">Jason Derulo</text>
        <path d="M 137 150 M 347 150 M 347 180 M 137 180" fill="none" stroke="#000000" stroke-miterlimit="10"/>       
        <path d="M 137 150 M 237 150 M 237 180 M 137 180" fill="none" stroke="#000000" stroke-miterlimit="10"/>
        <text x="187" y="169" fill="#000000" font-family="Helvetica" font-size="12px" text-anchor="middle">5</text>       
        <path d="M 237 150 M 347 150 M 347 180 M 237 180" fill="none" stroke="#000000" stroke-miterlimit="10"/>
        <text x="292" y="169" fill="#000000" font-family="Helvetica" font-size="12px" text-anchor="middle">Nicki Minaj</text>
        <path d="M 137 180 M 347 180 M 347 210 M 137 210" fill="none" stroke="#000000" stroke-miterlimit="10"/>   
        <path d="M 137 180 M 237 180 M 237 210 M 137 210" fill="none" stroke="#000000" stroke-miterlimit="10"/>
        <text x="187" y="199" fill="#000000" font-family="Helvetica" font-size="12px" text-anchor="middle">6</text>       
        <path d="M 237 180 M 347 180 M 347 210 M 237 210" fill="none" stroke="#000000" stroke-miterlimit="10"/>
        <text x="292" y="199" fill="#000000" font-family="Helvetica" font-size="12px" text-anchor="middle">Ty Dolla $ign</text>
        <path d="M 137 105 L 27 105 L 27 350 L 70.63 350" fill="none" stroke="#000000" stroke-miterlimit="10"/>
        <path d="M 75.88 350 L 68.88 353.5 L 70.63 350 L 68.88 346.5 Z" fill="#000000" stroke="#000000" stroke-miterlimit="10"/>
        <path d="M 137 135 L 17 135 L 17 381.5 L 70.63 381.5" fill="none" stroke="#000000" stroke-miterlimit="10"/>
        <path d="M 75.88 381.5 L 68.88 385 L 70.63 381.5 L 68.88 378 Z" fill="#000000" stroke="#000000" stroke-miterlimit="10"/>
        <path d="M 137 165 L 7 165 L 7 408.5 L 70.63 408.5" fill="none" stroke="#000000" stroke-miterlimit="10"/>
        <path d="M 75.88 408.5 L 68.88 412 L 70.63 408.5 L 68.88 405 Z" fill="#000000" stroke="#000000" stroke-miterlimit="10"/>
        <path d="M 137 195 L 37 195 L 37 435.5 L 70.63 435.5" fill="none" stroke="#000000" stroke-miterlimit="10"/>
        <path d="M 75.88 435.5 L 68.88 439 L 70.63 435.5 L 68.88 432 Z" fill="#000000" stroke="#000000" stroke-miterlimit="10"/>
    </g>
</svg>