<?xml version="1.0" encoding="UTF-8"?>
<!DOCTYPE svg PUBLIC "-//W3C//DTD SVG 1.1//EN" "http://www.w3.org/Graphics/SVG/1.1/DTD/svg11.dtd">
<svg xmlns="http://www.w3.org/2000/svg" style="background-color: #ffffff;"
    xmlns:xlink="http://www.w3.org/1999/xlink" version="1.1" width="375px" height="300px">
    <defs/>
    <g transform="translate(10,10)">
        <rect x="0" y="0" width="300" height="270" fill="#ffffff" stroke="#000000"/>
        <path d="M 0 34 L 300 34" fill="none" stroke="#000000" stroke-miterlimit="10"/>
        <path d="M 0 68 L 300 68" fill="none" stroke="#000000" stroke-miterlimit="10"/>
        <path d="M 0 101 L 300 101" fill="none" stroke="#000000" stroke-miterlimit="10"/>
        <path d="M 0 135 L 300 135" fill="none" stroke="#000000" stroke-miterlimit="10"/>
        <path d="M 0 169 L 300 169" fill="none" stroke="#000000" stroke-miterlimit="10"/>
        <path d="M 0 203 L 300 203" fill="none" stroke="#000000" stroke-miterlimit="10"/>
        <path d="M 0 236 L 300 236" fill="none" stroke="#000000" stroke-miterlimit="10"/>
        <path d="M 80 0 L 80 270" fill="none" stroke="#000000" stroke-miterlimit="10"/>
        <path d="M 180 0 L 180 270" fill="none" stroke="#000000" stroke-miterlimit="10"/>
        <path d="M 0 0 M 300 0 M 300 34 M 0 34" fill="none" stroke="#000000" stroke-miterlimit="10"/>
        <path d="M 0 0 M 80 0 M 80 34 M 0 34" fill="none" stroke="#000000" stroke-miterlimit="10"/>
        <text x="40" y="21" fill="#000000" font-family="Helvetica" font-size="12px" font-weight="bold" text-anchor="middle">category_id</text>     
        <path d="M 80 0 M 180 0 M 180 34 M 80 34" fill="none" stroke="#000000" stroke-miterlimit="10"/>
        <text x="130" y="21" fill="#000000" font-family="Helvetica" font-size="12px" font-weight="bold" text-anchor="middle">name</text>    
        <path d="M 180 0 M 300 0 M 300 34 M 180 34" fill="none" stroke="#000000" stroke-miterlimit="10"/>
        <text x="240" y="21" fill="#000000" font-family="Helvetica" font-size="12px" font-weight="bold" text-anchor="middle">parent_category_id</text>

        <path d="M 300 51 L 350 51 L 350 84.5 L 306.37 84.5" fill="none" stroke="#000000" stroke-miterlimit="10"/>
        <path d="M 301.12 84.5 L 308.12 81 L 306.37 84.5 L 308.12 88 Z" fill="#000000" stroke="#000000" stroke-miterlimit="10"/>
        <path d="M 0 34 M 300 34 M 300 68 M 0 68" fill="none" stroke="#000000" stroke-miterlimit="10"/>      
        <path d="M 0 34 M 80 34 M 80 68 M 0 68" fill="none" stroke="#000000" stroke-miterlimit="10"/>
        
        <text x="40" y="55" fill="#000000" font-family="Helvetica" font-size="12px" text-anchor="middle">1</text>       
        <path d="M 80 34 M 180 34 M 180 68 M 80 68" fill="none" stroke="#000000" stroke-miterlimit="10"/>
        <text x="130" y="55" fill="#000000" font-family="Helvetica" font-size="12px" text-anchor="middle">Weight Lifting</text>  

        <path d="M 180 34 M 300 34 M 300 68 M 180 68" fill="none" stroke="#000000" stroke-miterlimit="10"/>
        <path d="M 300 91.5 L 330 91.5 L 330 118 L 306.37 118" fill="none" stroke="#000000" stroke-miterlimit="10"/>
        <path d="M 301.12 118 L 308.12 114.5 L 306.37 118 L 308.12 121.5 Z" fill="#000000" stroke="#000000" stroke-miterlimit="10"/>
       

        <text x="40" y="88" fill="#000000" font-family="Helvetica" font-size="12px" text-anchor="middle">2</text>      
        <path d="M 80 68 M 180 68 M 180 101 M 80 101" fill="none" stroke="#000000" stroke-miterlimit="10"/>
        <text x="130" y="88" fill="#000000" font-family="Helvetica" font-size="12px" text-anchor="middle">Free Weights</text>       
        <path d="M 180 68 M 300 68 M 300 101 M 180 101" fill="none" stroke="#000000" stroke-miterlimit="10"/>
        <text x="240" y="88" fill="#000000" font-family="Helvetica" font-size="12px" text-anchor="middle">1</text>
        <path d="M 0 101 M 300 101 M 300 135 M 0 135" fill="none" stroke="#000000" stroke-miterlimit="10"/>     
        <path d="M 0 101 M 80 101 M 80 135 M 0 135" fill="none" stroke="#000000" stroke-miterlimit="10"/>
        <text x="40" y="122" fill="#000000" font-family="Helvetica" font-size="12px" text-anchor="middle">3</text>       
        <path d="M 80 101 M 180 101 M 180 135 M 80 135" fill="none" stroke="#000000" stroke-miterlimit="10"/>
        <text x="130" y="122" fill="#000000" font-family="Helvetica" font-size="12px" text-anchor="middle">Benchpress</text>       
        <path d="M 180 101 M 300 101 M 300 135 M 180 135" fill="none" stroke="#000000" stroke-miterlimit="10"/>
        <text x="240" y="122" fill="#000000" font-family="Helvetica" font-size="12px" text-anchor="middle">2</text>
        <path d="M 300 157 L 320 157 L 320 186 L 306.37 186" fill="none" stroke="#000000" stroke-miterlimit="10"/>
        <path d="M 301.12 186 L 308.12 182.5 L 306.37 186 L 308.12 189.5 Z" fill="#000000" stroke="#000000" stroke-miterlimit="10"/>
        <path d="M 300 150 L 330 150 L 330 219.5 L 306.37 219.5" fill="none" stroke="#000000" stroke-miterlimit="10"/>
        <path d="M 301.12 219.5 L 308.12 216 L 306.37 219.5 L 308.12 223 Z" fill="#000000" stroke="#000000" stroke-miterlimit="10"/>
        <path d="M 300 142 L 340 142 L 340 253 L 306.37 253" fill="none" stroke="#000000" stroke-miterlimit="10"/>
        <path d="M 301.12 253 L 308.12 249.5 L 306.37 253 L 308.12 256.5 Z" fill="#000000" stroke="#000000" stroke-miterlimit="10"/>
        <path d="M 0 135 M 300 135 M 300 169 M 0 169" fill="none" stroke="#000000" stroke-miterlimit="10"/>       
        <path d="M 0 135 M 80 135 M 80 169 M 0 169" fill="none" stroke="#000000" stroke-miterlimit="10"/>
        <text x="40" y="156" fill="#000000" font-family="Helvetica" font-size="12px" text-anchor="middle">4</text>       
        <path d="M 80 135 M 180 135 M 180 169 M 80 169" fill="none" stroke="#000000" stroke-miterlimit="10"/>
        <text x="130" y="156" fill="#000000" font-family="Helvetica" font-size="12px" text-anchor="middle">Swimming</text>    
        <path d="M 180 135 M 300 135 M 300 169 M 180 169" fill="none" stroke="#000000" stroke-miterlimit="10"/>
        <path d="M 0 169 M 300 169 M 300 203 M 0 203" fill="none" stroke="#000000" stroke-miterlimit="10"/>      
        <path d="M 0 169 M 80 169 M 80 203 M 0 203" fill="none" stroke="#000000" stroke-miterlimit="10"/>
        <text x="40" y="190" fill="#000000" font-family="Helvetica" font-size="12px" text-anchor="middle">5</text>      
        <path d="M 80 169 M 180 169 M 180 203 M 80 203" fill="none" stroke="#000000" stroke-miterlimit="10"/>
        <text x="130" y="190" fill="#000000" font-family="Helvetica" font-size="12px" text-anchor="middle">Freestyle</text>       
        <path d="M 180 169 M 300 169 M 300 203 M 180 203" fill="none" stroke="#000000" stroke-miterlimit="10"/>
        <text x="240" y="190" fill="#000000" font-family="Helvetica" font-size="12px" text-anchor="middle">4</text>
        <path d="M 0 203 M 300 203 M 300 236 M 0 236" fill="none" stroke="#000000" stroke-miterlimit="10"/>       
        <path d="M 0 203 M 80 203 M 80 236 M 0 236" fill="none" stroke="#000000" stroke-miterlimit="10"/>
        <text x="40" y="223" fill="#000000" font-family="Helvetica" font-size="12px" text-anchor="middle">6</text>       
        <path d="M 80 203 M 180 203 M 180 236 M 80 236" fill="none" stroke="#000000" stroke-miterlimit="10"/>
        <text x="130" y="223" fill="#000000" font-family="Helvetica" font-size="12px" text-anchor="middle">Breast Stroke</text>       
        <path d="M 180 203 M 300 203 M 300 236 M 180 236" fill="none" stroke="#000000" stroke-miterlimit="10"/>
        <text x="240" y="223" fill="#000000" font-family="Helvetica" font-size="12px" text-anchor="middle">4</text>
        <path d="M 0 236 M 300 236 M 300 270 M 0 270" fill="none" stroke="#000000" stroke-miterlimit="10"/>    
        <path d="M 0 236 M 80 236 M 80 270 M 0 270" fill="none" stroke="#000000" stroke-miterlimit="10"/>
        <text x="40" y="257" fill="#000000" font-family="Helvetica" font-size="12px" text-anchor="middle">7</text>    
        <path d="M 80 236 M 180 236 M 180 270 M 80 270" fill="none" stroke="#000000" stroke-miterlimit="10"/>
        <text x="130" y="257" fill="#000000" font-family="Helvetica" font-size="12px" text-anchor="middle">Butterfly</text>      
        <path d="M 180 236 M 300 236 M 300 270 M 180 270" fill="none" stroke="#000000" stroke-miterlimit="10"/>
        <text x="240" y="257" fill="#000000" font-family="Helvetica" font-size="12px" text-anchor="middle">4</text>
    </g>
</svg>