<?xml version="1.0" encoding="UTF-8"?>
<!DOCTYPE svg PUBLIC "-//W3C//DTD SVG 1.1//EN" "http://www.w3.org/Graphics/SVG/1.1/DTD/svg11.dtd">
<svg xmlns="http://www.w3.org/2000/svg" style="background-color: #ffffff;"
    xmlns:xlink="http://www.w3.org/1999/xlink" version="1.1" width="450px" height="275px">
    <defs/>
    <g transform="translate(10, 10)">
        <rect x="0" y="0" width="330" height="130" fill="#ffffff" stroke="#000000"/>
        <path d="M 0 33 L 330 33" fill="none" stroke="#000000" stroke-miterlimit="10"/>
        <path d="M 0 65 L 330 65" fill="none" stroke="#000000" stroke-miterlimit="10"/>
        <path d="M 0 98 L 330 98" fill="none" stroke="#000000" stroke-miterlimit="10"/>
        <path d="M 83 0 L 83 130" fill="none" stroke="#000000" stroke-miterlimit="10"/>
        <path d="M 165 0 L 165 130" fill="none" stroke="#000000" stroke-miterlimit="10"/>
        <path d="M 248 0 L 248 130" fill="none" stroke="#000000" stroke-miterlimit="10"/>
        <path d="M 0 0 M 330 0 M 330 33 M 0 33" fill="none" stroke="#000000" stroke-miterlimit="10"/>
        <rect x="0" y="0" width="83" height="33" fill="none" stroke="none"/>
        <path d="M 0 0 M 83 0 M 83 33 M 0 33" fill="none" stroke="#000000" stroke-miterlimit="10"/>
        <text x="42" y="20" fill="#000000" font-family="Helvetica" font-size="12px" font-weight="bold" text-anchor="middle">customer_id</text>
        <path d="M 83 0 M 165 0 M 165 33 M 83 33" fill="none" stroke="#000000" stroke-miterlimit="10"/>
        <text x="124" y="20" fill="#000000" font-family="Helvetica" font-size="12px" font-weight="bold" text-anchor="middle">first_name</text>
        <path d="M 165 0 M 248 0 M 248 33 M 165 33" fill="none" stroke="#000000" stroke-miterlimit="10"/>
        <text x="207" y="20" fill="#000000" font-family="Helvetica" font-size="12px" font-weight="bold" text-anchor="middle">last_name</text>
        <path d="M 248 0 M 330 0 M 330 33 M 248 33" fill="none" stroke="#000000" stroke-miterlimit="10"/>
        <text x="289" y="20" fill="#000000" font-family="Helvetica" font-size="12px" font-weight="bold" text-anchor="middle">company</text>
        <path d="M 0 33 M 330 33 M 330 65 M 0 65" fill="none" stroke="#000000" stroke-miterlimit="10"/>
        <path d="M 0 33 M 83 33 M 83 65 M 0 65" fill="none" stroke="#000000" stroke-miterlimit="10"/>
        <text x="42" y="53" fill="#000000" font-family="Helvetica" font-size="12px" text-anchor="middle">1</text>
        <path d="M 83 33 M 165 33 M 165 65 M 83 65" fill="none" stroke="#000000" stroke-miterlimit="10"/>
        <text x="124" y="53" fill="#000000" font-family="Helvetica" font-size="12px" text-anchor="middle">Keir</text>
        <path d="M 165 33 M 248 33 M 248 65 M 165 65" fill="none" stroke="#000000" stroke-miterlimit="10"/>
        <text x="207" y="53" fill="#000000" font-family="Helvetica" font-size="12px" text-anchor="middle">Dorbon</text>
        <path d="M 248 33 M 330 33 M 330 65 M 248 65" fill="none" stroke="#000000" stroke-miterlimit="10"/>
        <text x="289" y="53" fill="#000000" font-family="Helvetica" font-size="12px" text-anchor="middle">Vinte</text>
        <path d="M 0 65 M 330 65 M 330 98 M 0 98" fill="none" stroke="#000000" stroke-miterlimit="10"/>
        <path d="M 0 65 M 83 65 M 83 98 M 0 98" fill="none" stroke="#000000" stroke-miterlimit="10"/>
        <text x="42" y="85" fill="#000000" font-family="Helvetica" font-size="12px" text-anchor="middle">2</text>
        <path d="M 83 65 M 165 65 M 165 98 M 83 98" fill="none" stroke="#000000" stroke-miterlimit="10"/>
        <text x="124" y="85" fill="#000000" font-family="Helvetica" font-size="12px" text-anchor="middle">Loutitia</text>
        <path d="M 165 65 M 248 65 M 248 98 M 165 98" fill="none" stroke="#000000" stroke-miterlimit="10"/>
        <text x="207" y="85" fill="#000000" font-family="Helvetica" font-size="12px" text-anchor="middle">Malimoe</text>
        <path d="M 248 65 M 330 65 M 330 98 M 248 98" fill="none" stroke="#000000" stroke-miterlimit="10"/>
        <text x="289" y="85" fill="#000000" font-family="Helvetica" font-size="12px" text-anchor="middle">Bluezoom</text>
        <path d="M 0 98 M 330 98 M 330 130 M 0 130" fill="none" stroke="#000000" stroke-miterlimit="10"/>
        <path d="M 0 98 M 83 98 M 83 130 M 0 130" fill="none" stroke="#000000" stroke-miterlimit="10"/>
        <text x="42" y="118" fill="#000000" font-family="Helvetica" font-size="12px" text-anchor="middle">3</text>
        <path d="M 83 98 M 165 98 M 165 130 M 83 130" fill="none" stroke="#000000" stroke-miterlimit="10"/>
        <text x="124" y="118" fill="#000000" font-family="Helvetica" font-size="12px" text-anchor="middle">Godwin</text>
        <path d="M 165 98 M 248 98 M 248 130 M 165 130" fill="none" stroke="#000000" stroke-miterlimit="10"/>
        <text x="207" y="118" fill="#000000" font-family="Helvetica" font-size="12px" text-anchor="middle">De Haven</text>
        <path d="M 248 98 M 330 98 M 330 130 M 248 130" fill="none" stroke="#000000" stroke-miterlimit="10"/>
        <text x="289" y="118" fill="#000000" font-family="Helvetica" font-size="12px" text-anchor="middle">Aibox</text>
        <rect x="0" y="160" width="390" height="100" fill="#ffffff" stroke="#000000"/>
        <path d="M 0 193 L 390 193" fill="none" stroke="#000000" stroke-miterlimit="10"/>
        <path d="M 0 227 L 390 227" fill="none" stroke="#000000" stroke-miterlimit="10"/>
        <path d="M 106 160 L 106 260" fill="none" stroke="#000000" stroke-miterlimit="10"/>
        <path d="M 250 160 L 250 260" fill="none" stroke="#000000" stroke-miterlimit="10"/>
        <path d="M 0 160 M 390 160 M 390 193 M 0 193" fill="none" stroke="#000000" stroke-miterlimit="10"/>
        <rect x="0" y="160" width="106" height="33" fill="none" stroke="none"/>
        <path d="M 0 160 M 106 160 M 106 193 M 0 193" fill="none" stroke="#000000" stroke-miterlimit="10"/>
        <text x="53" y="180" fill="#000000" font-family="Helvetica" font-size="12px" font-weight="bold" text-anchor="middle">customer_id</text>
        <path d="M 106 160 M 250 160 M 250 193 M 106 193" fill="none" stroke="#000000" stroke-miterlimit="10"/>
        <text x="178" y="180" fill="#000000" font-family="Helvetica" font-size="12px" font-weight="bold" text-anchor="middle">email_address</text>
        <path d="M 250 160 M 390 160 M 390 193 M 250 193" fill="none" stroke="#000000" stroke-miterlimit="10"/>
        <text x="320" y="180" fill="#000000" font-family="Helvetica" font-size="12px" font-weight="bold" text-anchor="middle">password_hash</text>
        <path d="M 0 193 M 390 193 M 390 227 M 0 227" fill="none" stroke="#000000" stroke-miterlimit="10"/>
        <path d="M 0 193 M 106 193 M 106 227 M 0 227" fill="none" stroke="#000000" stroke-miterlimit="10"/>
        <text x="53" y="214" fill="#000000" font-family="Helvetica" font-size="12px" text-anchor="middle">1</text>
        <path d="M 106 193 M 250 193 M 250 227 M 106 227" fill="none" stroke="#000000" stroke-miterlimit="10"/>
        <text x="178" y="214" fill="#000000" font-family="Helvetica" font-size="12px" text-anchor="middle">kdorbon0@msn.com</text>
        <path d="M 250 193 M 390 193 M 390 227 M 250 227" fill="none" stroke="#000000" stroke-miterlimit="10"/>
        <text x="320" y="214" fill="#000000" font-family="Helvetica" font-size="12px" text-anchor="middle">9kdoi1u9ueqjnhds0</text>
        <path d="M 0 227 M 390 227 M 390 260 M 0 260" fill="none" stroke="#000000" stroke-miterlimit="10"/>
        <path d="M 0 227 M 106 227 M 106 260 M 0 260" fill="none" stroke="#000000" stroke-miterlimit="10"/>
        <text x="53" y="247" fill="#000000" font-family="Helvetica" font-size="12px" text-anchor="middle">3</text>
        <path d="M 106 227 M 250 227 M 250 260 M 106 260" fill="none" stroke="#000000" stroke-miterlimit="10"/>
        <text x="178" y="247" fill="#000000" font-family="Helvetica" font-size="12px" text-anchor="middle">gdehaven2@google.cn</text>
        <path d="M 250 227 M 390 227 M 390 260 M 250 260" fill="none" stroke="#000000" stroke-miterlimit="10"/>
        <text x="320" y="247" fill="#000000" font-family="Helvetica" font-size="12px" text-anchor="middle">1PqBKbgzydwxw...</text>
        <path d="M 330 49 L 410 49 L 410 210 L 396.37 210" fill="none" stroke="#000000" stroke-miterlimit="10"/>
        <path d="M 391.12 210 L 398.12 206.5 L 396.37 210 L 398.12 213.5 Z" fill="#000000" stroke="#000000" stroke-miterlimit="10"/>
        <path d="M 330 114 L 420 114 L 420 243.5 L 396.37 243.5" fill="none" stroke="#000000" stroke-miterlimit="10"/>
        <path d="M 391.12 243.5 L 398.12 240 L 396.37 243.5 L 398.12 247 Z" fill="#000000" stroke="#000000" stroke-miterlimit="10"/>
    </g>
</svg>