<?xml version="1.0" encoding="UTF-8"?>
<!DOCTYPE svg PUBLIC "-//W3C//DTD SVG 1.1//EN" "http://www.w3.org/Graphics/SVG/1.1/DTD/svg11.dtd">
<svg xmlns="http://www.w3.org/2000/svg" style="background-color: #ffffff;" 
    xmlns:xlink="http://www.w3.org/1999/xlink" version="1.1" width="500px" height="325px">
    <defs/>
    <g transform="translate(10, 10)">
        <rect x="0" y="0" width="220" height="90" fill="#ffffff" stroke="#000000"/>
        <path d="M 0 30 L 220 30" fill="none" stroke="#000000" stroke-miterlimit="10"/>
        <path d="M 0 60 L 220 60" fill="none" stroke="#000000" stroke-miterlimit="10"/>
        <path d="M 70 0 L 70 90" fill="none" stroke="#000000" stroke-miterlimit="10"/>
        <path d="M 140 0 L 140 90" fill="none" stroke="#000000" stroke-miterlimit="10"/>
        <path d="M 0 0 M 220 0 M 220 30 M 0 30" fill="none" stroke="#000000" stroke-miterlimit="10"/>
        <rect x="0" y="0" width="70" height="30" fill="none" stroke="none"/>
        <path d="M 0 0 M 70 0 M 70 30 M 0 30" fill="none" stroke="#000000" stroke-miterlimit="10"/>
        <text x="35" y="19" fill="#000000" font-family="Helvetica" font-size="12px" font-weight="bold" text-anchor="middle">contact_id</text>     
        <path d="M 70 0 M 140 0 M 140 30 M 70 30" fill="none" stroke="#000000" stroke-miterlimit="10"/>
        <text x="105" y="19" fill="#000000" font-family="Helvetica" font-size="12px" font-weight="bold" text-anchor="middle">first_name</text>     
        <path d="M 140 0 M 220 0 M 220 30 M 140 30" fill="none" stroke="#000000" stroke-miterlimit="10"/>
        <text x="180" y="19" fill="#000000" font-family="Helvetica" font-size="12px" font-weight="bold" text-anchor="middle">last_name</text>
        <path d="M 0 30 M 220 30 M 220 60 M 0 60" fill="none" stroke="#000000" stroke-miterlimit="10"/>     
        <path d="M 0 30 M 70 30 M 70 60 M 0 60" fill="none" stroke="#000000" stroke-miterlimit="10"/>
        <text x="35" y="49" fill="#000000" font-family="Helvetica" font-size="12px" text-anchor="middle">1</text>      
        <path d="M 70 30 M 140 30 M 140 60 M 70 60" fill="none" stroke="#000000" stroke-miterlimit="10"/>
        <text x="105" y="49" fill="#000000" font-family="Helvetica" font-size="12px" text-anchor="middle">Meade</text>      
        <path d="M 140 30 M 220 30 M 220 60 M 140 60" fill="none" stroke="#000000" stroke-miterlimit="10"/>
        <text x="180" y="49" fill="#000000" font-family="Helvetica" font-size="12px" text-anchor="middle">Riediger</text>
        <path d="M 0 60 M 220 60 M 220 90 M 0 90" fill="none" stroke="#000000" stroke-miterlimit="10"/>       
        <path d="M 0 60 M 70 60 M 70 90 M 0 90" fill="none" stroke="#000000" stroke-miterlimit="10"/>
        <text x="35" y="79" fill="#000000" font-family="Helvetica" font-size="12px" text-anchor="middle">2</text>       
        <path d="M 70 60 M 140 60 M 140 90 M 70 90" fill="none" stroke="#000000" stroke-miterlimit="10"/>
        <text x="105" y="79" fill="#000000" font-family="Helvetica" font-size="12px" text-anchor="middle">Blondell</text>       
        <path d="M 140 60 M 220 60 M 220 90 M 140 90" fill="none" stroke="#000000" stroke-miterlimit="10"/>
        <text x="180" y="79" fill="#000000" font-family="Helvetica" font-size="12px" text-anchor="middle">Pankethman</text>
        <rect x="0" y="130" width="440" height="170" fill="#ffffff" stroke="#000000"/>
        <path d="M 0 164 L 440 164" fill="none" stroke="#000000" stroke-miterlimit="10"/>
        <path d="M 0 198 L 440 198" fill="none" stroke="#000000" stroke-miterlimit="10"/>
        <path d="M 0 232 L 440 232" fill="none" stroke="#000000" stroke-miterlimit="10"/>
        <path d="M 0 266 L 440 266" fill="none" stroke="#000000" stroke-miterlimit="10"/>
        <path d="M 111 130 L 111 300" fill="none" stroke="#000000" stroke-miterlimit="10"/>
        <path d="M 220 130 L 220 300" fill="none" stroke="#000000" stroke-miterlimit="10"/>
        <path d="M 344 130 L 344 300" fill="none" stroke="#000000" stroke-miterlimit="10"/>
        <path d="M 0 130 M 440 130 M 440 164 M 0 164" fill="none" stroke="#000000" stroke-miterlimit="10"/>      
        <path d="M 0 130 M 111 130 M 111 164 M 0 164" fill="none" stroke="#000000" stroke-miterlimit="10"/>
        <text x="56" y="151" fill="#000000" font-family="Helvetica" font-size="12px" font-weight="bold" text-anchor="middle">phone_number_id</text>       
        <path d="M 111 130 M 220 130 M 220 164 M 111 164" fill="none" stroke="#000000" stroke-miterlimit="10"/>
        <text x="166" y="151" fill="#000000" font-family="Helvetica" font-size="12px" font-weight="bold" text-anchor="middle">phone_number</text>     
        <path d="M 220 130 M 344 130 M 344 164 M 220 164" fill="none" stroke="#000000" stroke-miterlimit="10"/>
        <text x="282" y="151" fill="#000000" font-family="Helvetica" font-size="12px" font-weight="bold" text-anchor="middle">type</text>       
        <path d="M 344 130 M 440 130 M 440 164 M 344 164" fill="none" stroke="#000000" stroke-miterlimit="10"/>
        <text x="392" y="151" fill="#000000" font-family="Helvetica" font-size="12px" font-weight="bold" text-anchor="middle">contact_id</text>
        <path d="M 0 164 M 440 164 M 440 198 M 0 198" fill="none" stroke="#000000" stroke-miterlimit="10"/>      
        <path d="M 0 164 M 111 164 M 111 198 M 0 198" fill="none" stroke="#000000" stroke-miterlimit="10"/>
        <text x="56" y="185" fill="#000000" font-family="Helvetica" font-size="12px" text-anchor="middle">1</text>      
        <path d="M 111 164 M 220 164 M 220 198 M 111 198" fill="none" stroke="#000000" stroke-miterlimit="10"/>
        <text x="166" y="185" fill="#000000" font-family="Helvetica" font-size="12px" text-anchor="middle">555.234.1234</text>       
        <path d="M 220 164 M 344 164 M 344 198 M 220 198" fill="none" stroke="#000000" stroke-miterlimit="10"/>
        <text x="282" y="185" fill="#000000" font-family="Helvetica" font-size="12px" text-anchor="middle">mobile</text>     
        <path d="M 344 164 M 440 164 M 440 198 M 344 198" fill="none" stroke="#000000" stroke-miterlimit="10"/>
        <text x="392" y="185" fill="#000000" font-family="Helvetica" font-size="12px" text-anchor="middle">1</text>
        <path d="M 0 198 M 440 198 M 440 232 M 0 232" fill="none" stroke="#000000" stroke-miterlimit="10"/>      
        <path d="M 0 198 M 111 198 M 111 232 M 0 232" fill="none" stroke="#000000" stroke-miterlimit="10"/>
        <text x="56" y="219" fill="#000000" font-family="Helvetica" font-size="12px" text-anchor="middle">2</text>      
        <path d="M 111 198 M 220 198 M 220 232 M 111 232" fill="none" stroke="#000000" stroke-miterlimit="10"/>
        <text x="166" y="219" fill="#000000" font-family="Helvetica" font-size="12px" text-anchor="middle">1 (800) EAT-FOOD</text>      
        <path d="M 220 198 M 344 198 M 344 232 M 220 232" fill="none" stroke="#000000" stroke-miterlimit="10"/>
        <text x="282" y="219" fill="#000000" font-family="Helvetica" font-size="12px" text-anchor="middle">office</text>       
        <path d="M 344 198 M 440 198 M 440 232 M 344 232" fill="none" stroke="#000000" stroke-miterlimit="10"/>
        <text x="392" y="219" fill="#000000" font-family="Helvetica" font-size="12px" text-anchor="middle">1</text>
        <path d="M 0 232 M 440 232 M 440 266 M 0 266" fill="none" stroke="#000000" stroke-miterlimit="10"/>       
        <path d="M 0 232 M 111 232 M 111 266 M 0 266" fill="none" stroke="#000000" stroke-miterlimit="10"/>
        <text x="56" y="253" fill="#000000" font-family="Helvetica" font-size="12px" text-anchor="middle">3</text>      
        <path d="M 111 232 M 220 232 M 220 266 M 111 266" fill="none" stroke="#000000" stroke-miterlimit="10"/>
        <text x="166" y="253" fill="#000000" font-family="Helvetica" font-size="12px" text-anchor="middle">645-2934</text>       
        <path d="M 220 232 M 344 232 M 344 266 M 220 266" fill="none" stroke="#000000" stroke-miterlimit="10"/>
        <text x="282" y="253" fill="#000000" font-family="Helvetica" font-size="12px" text-anchor="middle">home</text>      
        <path d="M 344 232 M 440 232 M 440 266 M 344 266" fill="none" stroke="#000000" stroke-miterlimit="10"/>
        <text x="392" y="253" fill="#000000" font-family="Helvetica" font-size="12px" text-anchor="middle">1</text>
        <path d="M 0 266 M 440 266 M 440 300 M 0 300" fill="none" stroke="#000000" stroke-miterlimit="10"/>      
        <path d="M 0 266 M 111 266 M 111 300 M 0 300" fill="none" stroke="#000000" stroke-miterlimit="10"/>
        <text x="56" y="287" fill="#000000" font-family="Helvetica" font-size="12px" text-anchor="middle">4</text>       
        <path d="M 111 266 M 220 266 M 220 300 M 111 300" fill="none" stroke="#000000" stroke-miterlimit="10"/>
        <text x="166" y="287" fill="#000000" font-family="Helvetica" font-size="12px" text-anchor="middle">(555) 342-9994</text>      
        <path d="M 220 266 M 344 266 M 344 300 M 220 300" fill="none" stroke="#000000" stroke-miterlimit="10"/>
        <text x="282" y="287" fill="#000000" font-family="Helvetica" font-size="12px" text-anchor="middle">mobile</text>      
        <path d="M 344 266 M 440 266 M 440 300 M 344 300" fill="none" stroke="#000000" stroke-miterlimit="10"/>
        <text x="392" y="287" fill="#000000" font-family="Helvetica" font-size="12px" text-anchor="middle">2</text>
        <path d="M 220 45 L 460 45 L 460 181 L 446.37 181" fill="none" stroke="#000000" stroke-miterlimit="10"/>
        <path d="M 441.12 181 L 448.12 177.5 L 446.37 181 L 448.12 184.5 Z" fill="#000000" stroke="#000000" stroke-miterlimit="10"/>
        <path d="M 220 45 L 460 45 L 460 215 L 446.37 215" fill="none" stroke="#000000" stroke-miterlimit="10"/>
        <path d="M 441.12 215 L 448.12 211.5 L 446.37 215 L 448.12 218.5 Z" fill="#000000" stroke="#000000" stroke-miterlimit="10"/>
        <path d="M 220 45 L 460 45 L 460 249 L 446.37 249" fill="none" stroke="#000000" stroke-miterlimit="10"/>
        <path d="M 441.12 249 L 448.12 245.5 L 446.37 249 L 448.12 252.5 Z" fill="#000000" stroke="#000000" stroke-miterlimit="10"/>
        <path d="M 220 75 L 480 75 L 480 283 L 446.37 283" fill="none" stroke="#000000" stroke-miterlimit="10"/>
        <path d="M 441.12 283 L 448.12 279.5 L 446.37 283 L 448.12 286.5 Z" fill="#000000" stroke="#000000" stroke-miterlimit="10"/>
    </g>
</svg>