<?xml version="1.0" encoding="UTF-8"?>
<!DOCTYPE svg PUBLIC "-//W3C//DTD SVG 1.1//EN" "http://www.w3.org/Graphics/SVG/1.1/DTD/svg11.dtd">
<svg xmlns="http://www.w3.org/2000/svg" style="background-color: #ffffff;"
    xmlns:xlink="http://www.w3.org/1999/xlink" version="1.1" width="650px" height="275px">
    <defs/>
    <g transform="translate(10, 10)">
        <text x="20" y="14" fill="#000000" font-family="Helvetica" font-size="14px" font-weight="bold" text-anchor="middle">song</text>
        <rect x="0" y="31" width="600" height="210" fill="#ffffff" stroke="#000000"/>
        <path d="M 0 66 L 600 66" fill="none" stroke="#000000" stroke-miterlimit="10"/>
        <path d="M 0 101 L 600 101" fill="none" stroke="#000000" stroke-miterlimit="10"/>
        <path d="M 0 136 L 600 136" fill="none" stroke="#000000" stroke-miterlimit="10"/>
        <path d="M 0 171 L 600 171" fill="none" stroke="#000000" stroke-miterlimit="10"/>
        <path d="M 0 206 L 600 206" fill="none" stroke="#000000" stroke-miterlimit="10"/>
        <path d="M 162 31 L 162 241" fill="none" stroke="#000000" stroke-miterlimit="10"/>
        <path d="M 356 31 L 356 241" fill="none" stroke="#000000" stroke-miterlimit="10"/>
        <path d="M 460 31 L 460 241" fill="none" stroke="#000000" stroke-miterlimit="10"/>
        <path d="M 540 31 L 540 241" fill="none" stroke="#000000" stroke-miterlimit="10"/>
        <path d="M 0 31 M 600 31 M 600 66 M 0 66" fill="none" stroke="#000000" stroke-miterlimit="10"/>
        <path d="M 0 31 M 162 31 M 162 66 M 0 66" fill="none" stroke="#000000" stroke-miterlimit="10"/>
        <text x="81" y="52" fill="#000000" font-family="Helvetica" font-size="12px" font-weight="bold" text-anchor="middle">id</text>
        <path d="M 162 31 M 356 31 M 356 66 M 162 66" fill="none" stroke="#000000" stroke-miterlimit="10"/>
        <text x="259" y="52" fill="#000000" font-family="Helvetica" font-size="12px" font-weight="bold" text-anchor="middle">title</text>
        <path d="M 356 31 M 460 31 M 460 66 M 356 66" fill="none" stroke="#000000" stroke-miterlimit="10"/>
        <text x="408" y="52" fill="#000000" font-family="Helvetica" font-size="12px" font-weight="bold" text-anchor="middle">artist</text>
        <path d="M 460 31 M 540 31 M 540 66 M 460 66" fill="none" stroke="#000000" stroke-miterlimit="10"/>
        <text x="500" y="52" fill="#000000" font-family="Helvetica" font-size="12px" font-weight="bold" text-anchor="middle">danceability</text>
        <path d="M 540 31 M 600 31 M 600 66 M 540 66" fill="none" stroke="#000000" stroke-miterlimit="10"/>
        <text x="570" y="52" fill="#000000" font-family="Helvetica" font-size="12px" font-weight="bold" text-anchor="middle">energy</text>
        <path d="M 0 66 M 600 66 M 600 101 M 0 101" fill="none" stroke="#000000" stroke-miterlimit="10"/>
        <path d="M 0 66 M 162 66 M 162 101 M 0 101" fill="none" stroke="#000000" stroke-miterlimit="10"/>
        <text x="81" y="87" fill="#000000" font-family="Helvetica" font-size="12px" text-anchor="middle">343YBumqHu19cGoGARUTs</text>
        <path d="M 162 66 M 356 66 M 356 101 M 162 101" fill="none" stroke="#000000" stroke-miterlimit="10"/>
        <text x="259" y="87" fill="#000000" font-family="Helvetica" font-size="12px" text-anchor="middle">Fake Love</text>
        <path d="M 356 66 M 460 66 M 460 101 M 356 101" fill="none" stroke="#000000" stroke-miterlimit="10"/>
        <text x="408" y="87" fill="#000000" font-family="Helvetica" font-size="12px" text-anchor="middle">Drake</text>
        <path d="M 460 66 M 540 66 M 540 101 M 460 101" fill="none" stroke="#000000" stroke-miterlimit="10"/>
        <text x="500" y="87" fill="#000000" font-family="Helvetica" font-size="12px" text-anchor="middle">0.927</text>
        <path d="M 540 66 M 600 66 M 600 101 M 540 101" fill="none" stroke="#000000" stroke-miterlimit="10"/>
        <text x="570" y="87" fill="#000000" font-family="Helvetica" font-size="12px" text-anchor="middle">0.488</text>
        <path d="M 0 101 M 600 101 M 600 136 M 0 136" fill="none" stroke="#000000" stroke-miterlimit="10"/>
        <path d="M 0 101 M 162 101 M 162 136 M 0 136" fill="none" stroke="#000000" stroke-miterlimit="10"/>
        <text x="81" y="122" fill="#000000" font-family="Helvetica" font-size="12px" text-anchor="middle">5hYTyyh2odQKphUbMqc5g</text>
        <path d="M 162 101 M 356 101 M 356 136 M 162 136" fill="none" stroke="#000000" stroke-miterlimit="10"/>
        <text x="259" y="122" fill="#000000" font-family="Helvetica" font-size="12px" text-anchor="middle">How Far I'll Go - From "Moana"</text>
        <path d="M 356 101 M 460 101 M 460 136 M 356 136" fill="none" stroke="#000000" stroke-miterlimit="10"/>
        <text x="408" y="122" fill="#000000" font-family="Helvetica" font-size="12px" text-anchor="middle">Alessia Cara</text>
        <path d="M 460 101 M 540 101 M 540 136 M 460 136" fill="none" stroke="#000000" stroke-miterlimit="10"/>
        <text x="500" y="122" fill="#000000" font-family="Helvetica" font-size="12px" text-anchor="middle">0.314</text>
        <path d="M 540 101 M 600 101 M 600 136 M 540 136" fill="none" stroke="#000000" stroke-miterlimit="10"/>
        <text x="570" y="122" fill="#000000" font-family="Helvetica" font-size="12px" text-anchor="middle">0.555</text>
        <path d="M 0 136 M 600 136 M 600 171 M 0 171" fill="none" stroke="#000000" stroke-miterlimit="10"/>
        <path d="M 0 136 M 162 136 M 162 171 M 0 171" fill="none" stroke="#000000" stroke-miterlimit="10"/>
        <text x="81" y="157" fill="#000000" font-family="Helvetica" font-size="12px" text-anchor="middle">6HZILIRieu8S0iqY8kIKh</text>
        <path d="M 162 136 M 356 136 M 356 171 M 162 171" fill="none" stroke="#000000" stroke-miterlimit="10"/>
        <text x="259" y="157" fill="#000000" font-family="Helvetica" font-size="12px" text-anchor="middle">DNA.</text>
        <path d="M 356 136 M 460 136 M 460 171 M 356 171" fill="none" stroke="#000000" stroke-miterlimit="10"/>
        <text x="408" y="157" fill="#000000" font-family="Helvetica" font-size="12px" text-anchor="middle">Kendrick Lamar</text>
        <path d="M 460 136 M 540 136 M 540 171 M 460 171" fill="none" stroke="#000000" stroke-miterlimit="10"/>
        <text x="500" y="157" fill="#000000" font-family="Helvetica" font-size="12px" text-anchor="middle">0.637</text>
        <path d="M 540 136 M 600 136 M 600 171 M 540 171" fill="none" stroke="#000000" stroke-miterlimit="10"/>
        <text x="570" y="157" fill="#000000" font-family="Helvetica" font-size="12px" text-anchor="middle">0.514</text>
        <path d="M 0 171 M 600 171 M 600 206 M 0 206" fill="none" stroke="#000000" stroke-miterlimit="10"/>
        <path d="M 0 171 M 162 171 M 162 206 M 0 206" fill="none" stroke="#000000" stroke-miterlimit="10"/>
        <text x="81" y="192" fill="#000000" font-family="Helvetica" font-size="12px" text-anchor="middle">1wjzFQodRWrPcQ0AnYnvQ</text>
        <path d="M 162 171 M 356 171 M 356 206 M 162 206" fill="none" stroke="#000000" stroke-miterlimit="10"/>
        <text x="259" y="192" fill="#000000" font-family="Helvetica" font-size="12px" text-anchor="middle">I Like Me Better</text>
        <path d="M 356 171 M 460 171 M 460 206 M 356 206" fill="none" stroke="#000000" stroke-miterlimit="10"/>
        <text x="408" y="192" fill="#000000" font-family="Helvetica" font-size="12px" text-anchor="middle">Lauv</text>
        <path d="M 460 171 M 540 171 M 540 206 M 460 206" fill="none" stroke="#000000" stroke-miterlimit="10"/>
        <text x="500" y="192" fill="#000000" font-family="Helvetica" font-size="12px" text-anchor="middle">0.752</text>
        <path d="M 540 171 M 600 171 M 600 206 M 540 206" fill="none" stroke="#000000" stroke-miterlimit="10"/>
        <text x="570" y="192" fill="#000000" font-family="Helvetica" font-size="12px" text-anchor="middle">0.505</text>
        <path d="M 0 206 M 600 206 M 600 241 M 0 241" fill="none" stroke="#000000" stroke-miterlimit="10"/>
        <path d="M 0 206 M 162 206 M 162 241 M 0 241" fill="none" stroke="#000000" stroke-miterlimit="10"/>
        <text x="81" y="227" fill="#000000" font-family="Helvetica" font-size="12px" text-anchor="middle">4pLwZjInHj3SimIyN9SnO</text>
        <path d="M 162 206 M 356 206 M 356 241 M 162 241" fill="none" stroke="#000000" stroke-miterlimit="10"/>
        <text x="259" y="227" fill="#000000" font-family="Helvetica" font-size="12px" text-anchor="middle">Side To Side</text>
        <path d="M 356 206 M 460 206 M 460 241 M 356 241" fill="none" stroke="#000000" stroke-miterlimit="10"/>
        <text x="408" y="227" fill="#000000" font-family="Helvetica" font-size="12px" text-anchor="middle">Ariana Grande</text>
        <path d="M 460 206 M 540 206 M 540 241 M 460 241" fill="none" stroke="#000000" stroke-miterlimit="10"/>
        <text x="500" y="227" fill="#000000" font-family="Helvetica" font-size="12px" text-anchor="middle">0.648</text>
        <path d="M 540 206 M 600 206 M 600 241 M 540 241" fill="none" stroke="#000000" stroke-miterlimit="10"/>
        <text x="570" y="227" fill="#000000" font-family="Helvetica" font-size="12px" text-anchor="middle">0.738</text>
    </g>
</svg>