<?xml version="1.0" encoding="UTF-8"?>
<!DOCTYPE svg PUBLIC "-//W3C//DTD SVG 1.1//EN" "http://www.w3.org/Graphics/SVG/1.1/DTD/svg11.dtd">
<svg xmlns="http://www.w3.org/2000/svg" style="background-color: #ffffff;"
    xmlns:xlink="http://www.w3.org/1999/xlink" version="1.1" width="510px" height="435px">
    <defs/>
    <g transform="translate(10, 10)">
        <rect x="146" y="90" width="180" height="210" rx="27" ry="27" fill="#ffffff" stroke="#000000"/>
        <path d="M 246 216 C 246 194.67 306 194.67 306 216 L 306 264 C 306 285.33 246 285.33 246 264 Z" fill="#ffffff" stroke="#000000" stroke-miterlimit="10"/>
        <path d="M 246 216 C 246 232 306 232 306 216" fill="none" stroke="#000000" stroke-miterlimit="10"/>
        <path d="M 166 216 C 166 194.67 226 194.67 226 216 L 226 264 C 226 285.33 166 285.33 166 264 Z" fill="#ffffff" stroke="#000000" stroke-miterlimit="10"/>
        <path d="M 166 216 C 166 232 226 232 226 216" fill="none" stroke="#000000" stroke-miterlimit="10"/>
        <path d="M 246 126 C 246 104.67 306 104.67 306 126 L 306 174 C 306 195.33 246 195.33 246 174 Z" fill="#ffffff" stroke="#000000" stroke-miterlimit="10"/>
        <path d="M 246 126 C 246 142 306 142 306 126" fill="none" stroke="#000000" stroke-miterlimit="10"/>
        <path d="M 166 126 C 166 104.67 226 104.67 226 126 L 226 174 C 226 195.33 166 195.33 166 174 Z" fill="#ffffff" stroke="#000000" stroke-miterlimit="10"/>
        <path d="M 166 126 C 166 142 226 142 226 126" fill="none" stroke="#000000" stroke-miterlimit="10"/>
        <text x="193" y="84" fill="#000000" font-family="Helvetica" font-size="14px" text-anchor="middle">Server</text>
        <path d="M 90 280 L 90 290 L 130 290 L 130 247.5 L 139.63 247.5" fill="none" stroke="#000000" stroke-miterlimit="10" pointer-events="stroke"/>
        <path d="M 144.88 247.5 L 137.88 251 L 139.63 247.5 L 137.88 244 Z" fill="#000000" stroke="#000000" stroke-miterlimit="10"/>
        <rect x="0" y="220" width="120" height="60" rx="9" ry="9" fill="#ffffff" stroke="#000000"/>
        <text x="60" y="254" fill="#000000" font-family="Helvetica" font-size="14px" text-anchor="middle">Client</text>
        <path d="M 130 150 L 147.1 150 L 140.71 150.04" fill="none" stroke="#000000" stroke-miterlimit="10" pointer-events="stroke"/>
        <path d="M 145.96 150.06 L 138.95 153.53 L 140.71 150.04 L 138.97 146.53 Z" fill="#000000" stroke="#000000" stroke-miterlimit="10"/>
        <rect x="10" y="120" width="120" height="60" rx="9" ry="9" fill="#ffffff" stroke="#000000"/>
        <text x="70" y="154" fill="#000000" font-family="Helvetica" font-size="14px" text-anchor="middle">Client</text>
        <path d="M 360 195 L 332.37 195" fill="none" stroke="#000000" stroke-miterlimit="10" pointer-events="stroke"/>
        <path d="M 327.12 195 L 334.12 191.5 L 332.37 195 L 334.12 198.5 Z" fill="#000000" stroke="#000000" stroke-miterlimit="10"/>
        <rect x="360" y="165" width="120" height="60" rx="9" ry="9" fill="#ffffff" stroke="#000000"/>
        <text x="420" y="199" fill="#000000" font-family="Helvetica" font-size="14px" text-anchor="middle">Client</text>
        <path d="M 380 100 L 380 120 L 330 120 L 330 95 L 322.29 95.02" fill="none" stroke="#000000" stroke-miterlimit="10" pointer-events="stroke"/>
        <path d="M 317.04 95.04 L 324.03 91.52 L 322.29 95.02 L 324.05 98.52 Z" fill="#000000" stroke="#000000" stroke-miterlimit="10"/>
        <rect x="350" y="40" width="120" height="60" rx="9" ry="9" fill="#ffffff" stroke="#000000"/>
        <text x="410" y="74" fill="#000000" font-family="Helvetica" font-size="14px" text-anchor="middle">Client</text>
        <path d="M 246 60 L 236 60 L 236 83.63" fill="none" stroke="#000000" stroke-miterlimit="10" pointer-events="stroke"/>
        <path d="M 236 88.88 L 232.5 81.88 L 236 83.63 L 239.5 81.88 Z" fill="#000000" stroke="#000000" stroke-miterlimit="10"/>
        <rect x="186" y="0" width="120" height="60" rx="9" ry="9" fill="#ffffff" stroke="#000000"/>
        <text x="246" y="34" fill="#000000" font-family="Helvetica" font-size="14px" text-anchor="middle">Client</text>
        <path d="M 110 60 L 110 100.1 L 139.63 100.08" fill="none" stroke="#000000" stroke-miterlimit="10" pointer-events="stroke"/>
        <path d="M 144.88 100.08 L 137.88 103.58 L 139.63 100.08 L 137.88 96.58 Z" fill="#000000" stroke="#000000" stroke-miterlimit="10"/>
        <rect x="20" y="0" width="120" height="60" rx="9" ry="9" fill="#ffffff" stroke="#000000"/>
        <text x="80" y="34" fill="#000000" font-family="Helvetica" font-size="14px" text-anchor="middle">Client</text>
        <path d="M 370 285 L 348 285 L 348 281.9 L 332.37 281.93" fill="none" stroke="#000000" stroke-miterlimit="10" pointer-events="stroke"/>
        <path d="M 327.12 281.94 L 334.11 278.43 L 332.37 281.93 L 334.12 285.43 Z" fill="#000000" stroke="#000000" stroke-miterlimit="10"/>
        <rect x="370" y="270" width="120" height="60" rx="9" ry="9" fill="#ffffff" stroke="#000000"/>
        <text x="430" y="304" fill="#000000" font-family="Helvetica" font-size="14px" text-anchor="middle">Client</text>
        <path d="M 270 330 L 267 330 L 266.97 309.31" fill="none" stroke="#000000" stroke-miterlimit="10" pointer-events="stroke"/>
        <path d="M 266.96 304.06 L 270.47 311.05 L 266.97 309.31 L 263.47 311.06 Z" fill="#000000" stroke="#000000" stroke-miterlimit="10"/>
        <rect x="210" y="330" width="120" height="60" rx="9" ry="9" fill="#ffffff" stroke="#000000"/>
        <text x="270" y="364" fill="#000000" font-family="Helvetica" font-size="14px" text-anchor="middle">Client</text>
        <path d="M 100 350 L 100 325 L 185.1 325 L 185.07 310.36" fill="none" stroke="#000000" stroke-miterlimit="10" pointer-events="stroke"/>
        <path d="M 185.06 305.11 L 188.58 312.1 L 185.07 310.36 L 181.58 312.11 Z" fill="#000000" stroke="#000000" stroke-miterlimit="10"/>
        <rect x="40" y="350" width="120" height="60" rx="9" ry="9" fill="#ffffff" stroke="#000000"/>
        <text x="100" y="384" fill="#000000" font-family="Helvetica" font-size="14px" text-anchor="middle">Client</text>
    </g>

</svg>