<?xml version="1.0" encoding="UTF-8"?>
<!DOCTYPE svg PUBLIC "-//W3C//DTD SVG 1.1//EN" "http://www.w3.org/Graphics/SVG/1.1/DTD/svg11.dtd">
<svg xmlns="http://www.w3.org/2000/svg" style="background-color: #ffffff;"
    xmlns:xlink="http://www.w3.org/1999/xlink" version="1.1" width="675px" height="250px">
    <defs/>
    <g transform="translate(10, 10)">
        <path d="M 440 139 L 412.5 139 L 412.5 155 L 382.57 155" fill="none" stroke="#000000" stroke-miterlimit="10"/>
        <path d="M 377.32 155 L 384.32 151.5 L 382.57 155 L 384.32 158.5 Z" fill="#000000" stroke="#000000" stroke-miterlimit="10"/>
        <text x="405" y="176" fill="#000000" font-family="Helvetica" font-size="14px" text-anchor="middle">Results</text>
        <rect x="440" y="30" width="210" height="200" rx="30" ry="30" fill="#ffffff" stroke="#000000"/>
        <path d="M 480 146 C 480 124.67 540 124.67 540 146 L 540 194 C 540 215.33 480 215.33 480 194 Z" fill="#ffffff" stroke="#000000" stroke-miterlimit="10"/>
        <path d="M 480 146 C 480 162 540 162 540 146" fill="none" stroke="#000000" stroke-miterlimit="10"/>
        <path d="M 560 146 C 560 124.67 620 124.67 620 146 L 620 194 C 620 215.33 560 215.33 560 194 Z" fill="#ffffff" stroke="#000000" stroke-miterlimit="10"/>
        <path d="M 560 146 C 560 162 620 162 620 146" fill="none" stroke="#000000" stroke-miterlimit="10"/>
        <path d="M 480 56 C 480 34.67 540 34.67 540 56 L 540 104 C 540 125.33 480 125.33 480 104 Z" fill="#ffffff" stroke="#000000" stroke-miterlimit="10"/>
        <path d="M 480 56 C 480 72 540 72 540 56" fill="none" stroke="#000000" stroke-miterlimit="10"/>
        <path d="M 358.6 74 L 395 74 L 395 89 L 433.63 89" fill="none" stroke="#000000" stroke-miterlimit="10"/>
        <path d="M 438.88 89 L 431.88 92.5 L 433.63 89 L 431.88 85.5 Z" fill="#000000" stroke="#000000" stroke-miterlimit="10"/>
        <text x="400" y="110" fill="#000000" font-family="Helvetica" font-size="14px" text-anchor="middle">SQL</text>
        <path d="M 220 74 C 176 74 165 119 200.2 128 C 165 147.8 204.6 191 233.2 173 C 253 209 319 209 341 173 C 385 173 385 137 357.5 119 C 385 83 341 47 302.5 65 C 275 38 231 38 220 74 Z" fill="#ffffff" stroke="#000000" stroke-miterlimit="10"/>
        <text x="275" y="123" fill="#000000" font-family="Helvetica" font-size="14px" text-anchor="middle">Network</text>
        <path d="M 560 56 C 560 34.67 620 34.67 620 56 L 620 104 C 620 125.33 560 125.33 560 104 Z" fill="#ffffff" stroke="#000000" stroke-miterlimit="10"/>
        <path d="M 560 56 C 560 72 620 72 620 56" fill="none" stroke="#000000" stroke-miterlimit="10"/>
        <text x="460" y="14" fill="#000000" font-family="Helvetica" font-size="14px" text-anchor="middle">DBMS</text>
        <text x="53" y="107" fill="#000000" font-family="Helvetica" font-size="14px" text-anchor="middle">Database</text>
        <text x="53" y="122" fill="#000000" font-family="Helvetica" font-size="14px" text-anchor="middle">requests (SQL)</text>
        <text x="53" y="137" fill="#000000" font-family="Helvetica" font-size="14px" text-anchor="middle">sent via the</text>
        <text x="53" y="152" fill="#000000" font-family="Helvetica" font-size="14px" text-anchor="middle">network.</text>
        <path d="M 108.5 86 L 108.5 76 L 158.5 76 L 158.5 65.5 L 177.5 81 L 158.5 96.5 L 158.5 86 Z" fill="none" stroke="#000000" stroke-linejoin="round" stroke-miterlimit="10"/>
        <path d="M 108.5 166 L 108.5 156 L 158.5 156 L 158.5 145.5 L 177.5 161 L 158.5 176.5 L 158.5 166 Z" fill="none" stroke="#000000" stroke-linejoin="round" stroke-miterlimit="10"/>
        <path d="M 108.5 126 L 108.5 116 L 158.5 116 L 158.5 105.5 L 177.5 121 L 158.5 136.5 L 158.5 126 Z" fill="none" stroke="#000000" stroke-linejoin="round" stroke-miterlimit="10"/>
    </g>
</svg>