<?xml version="1.0" encoding="UTF-8"?>
<!DOCTYPE svg PUBLIC "-//W3C//DTD SVG 1.1//EN" "http://www.w3.org/Graphics/SVG/1.1/DTD/svg11.dtd">
<svg xmlns="http://www.w3.org/2000/svg" style="background-color: #ffffff;"
    xmlns:xlink="http://www.w3.org/1999/xlink" version="1.1" width="700px" height="460px">
    <defs/>
    <g transform="translate(10,10)">
        <rect x="0" y="69" width="180" height="170" fill="#ffffff" stroke="#000000"/>
        <path d="M 0 97 L 180 97" fill="none" stroke="#000000" stroke-miterlimit="10"/>
        <path d="M 0 126 L 180 126" fill="none" stroke="#000000" stroke-miterlimit="10"/>
        <path d="M 0 154 L 180 154" fill="none" stroke="#000000" stroke-miterlimit="10"/>
        <path d="M 0 182 L 180 182" fill="none" stroke="#000000" stroke-miterlimit="10"/>
        <path d="M 0 211 L 180 211" fill="none" stroke="#000000" stroke-miterlimit="10"/>
        <path d="M 70 69 L 70 239" fill="none" stroke="#000000" stroke-miterlimit="10"/>
        <path d="M 0 69 M 180 69 M 180 97 M 0 97" fill="none" stroke="#000000" stroke-miterlimit="10"/>
        <path d="M 0 69 M 70 69 M 70 97 M 0 97" fill="none" stroke="#000000" stroke-miterlimit="10"/>

        <text x="35" y="87" fill="#000000" font-family="Helvetica" font-size="12px" text-anchor="middle">hero_id</text>
        <text x="125" y="87" fill="#000000" font-family="Helvetica" font-size="12px" text-anchor="middle">name</text>

        <rect x="0" y="126" width="70" height="28" fill="#bbe5f2" stroke="#000000"/>
        <text x="35" y="115" fill="#000000" font-family="Helvetica" font-size="12px" text-anchor="middle">1</text>
        <text x="125" y="115" fill="#000000" font-family="Helvetica" font-size="12px" text-anchor="middle">Bumblebee</text>

        <text x="35" y="144" fill="#000000" font-family="Helvetica" font-size="12px" text-anchor="middle">2</text>

        <rect x="70" y="126" width="110" height="28" fill="#bbe5f2" stroke="#000000"/>
        <text x="125" y="144" fill="#000000" font-family="Helvetica" font-size="12px" text-anchor="middle">Engineer</text>

        <text x="35" y="172" fill="#000000" font-family="Helvetica" font-size="12px" text-anchor="middle">3</text>
        <text x="125" y="172" fill="#000000" font-family="Helvetica" font-size="12px" text-anchor="middle">Joker</text>

        <rect x="0" y="182" width="70" height="29" fill="#bbe5f2" stroke="#000000"/>
        <rect x="70" y="182" width="110" height="29" fill="#bbe5f2" stroke="#000000"/>
        <text x="35" y="200" fill="#000000" font-family="Helvetica" font-size="12px" text-anchor="middle">4</text>
        <text x="125" y="200" fill="#000000" font-family="Helvetica" font-size="12px" text-anchor="middle">Scarlet Witch</text>

        <rect x="0" y="211" width="70" height="28" fill="#bbe5f2" stroke="#000000"/>
        <rect x="70" y="211" width="110" height="28" fill="#bbe5f2" stroke="#000000"/>
        <text x="35" y="229" fill="#000000" font-family="Helvetica" font-size="12px" text-anchor="middle">5</text>
        <text x="125" y="229" fill="#000000" font-family="Helvetica" font-size="12px" text-anchor="middle">Vision</text>

        <rect x="433" y="69" width="210" height="150" fill="#ffffff" stroke="#000000"/>
        <path d="M 433 99 L 643 99" fill="none" stroke="#000000" stroke-miterlimit="10"/>
        <path d="M 433 129 L 643 129" fill="none" stroke="#000000" stroke-miterlimit="10"/>
        <path d="M 433 159 L 643 159" fill="none" stroke="#000000" stroke-miterlimit="10"/>
        <path d="M 433 189 L 643 189" fill="none" stroke="#000000" stroke-miterlimit="10"/>
        <path d="M 523 69 L 523 219" fill="none" stroke="#000000" stroke-miterlimit="10"/>
        <path d="M 433 69 M 643 69 M 643 99 M 433 99" fill="none" stroke="#000000" stroke-miterlimit="10"/>
        <rect x="433" y="69" width="90" height="30" fill="none" stroke="none"/>
        <path d="M 433 69 M 523 69 M 523 99 M 433 99" fill="none" stroke="#000000" stroke-miterlimit="10"/>

        <text x="478" y="88" fill="#000000" font-family="Helvetica" font-size="12px" text-anchor="middle">team_id</text>
        <text x="583" y="88" fill="#000000" font-family="Helvetica" font-size="12px" text-anchor="middle">name</text>
        <text x="478" y="118" fill="#000000" font-family="Helvetica" font-size="12px" text-anchor="middle">1</text>
        <text x="583" y="118" fill="#000000" font-family="Helvetica" font-size="12px" text-anchor="middle">The Incredibles</text>
        <rect x="433" y="129" width="90" height="30" fill="#bbe5f2" stroke="#000000"/>
        <text x="478" y="148" fill="#000000" font-family="Helvetica" font-size="12px" text-anchor="middle">2</text>
        <rect x="523" y="129" width="120" height="30" fill="#bbe5f2" stroke="#000000"/>
        <text x="583" y="148" fill="#000000" font-family="Helvetica" font-size="12px" text-anchor="middle">The Authority</text>
        <rect x="433" y="159" width="90" height="30" fill="#bbe5f2" stroke="#000000"/>
        <text x="478" y="178" fill="#000000" font-family="Helvetica" font-size="12px" text-anchor="middle">3</text>
        <rect x="523" y="159" width="120" height="30" fill="#bbe5f2" stroke="#000000"/>
        <text x="583" y="178" fill="#000000" font-family="Helvetica" font-size="12px" text-anchor="middle">The Avengers</text>
        <text x="478" y="208" fill="#000000" font-family="Helvetica" font-size="12px" text-anchor="middle">4</text>
        <text x="583" y="208" fill="#000000" font-family="Helvetica" font-size="12px" text-anchor="middle">X-Men</text>

        <rect x="241" y="104" width="120" height="100" fill="#ffffff" stroke="#000000"/>
        <path d="M 241 129 L 361 129" fill="none" stroke="#000000" stroke-miterlimit="10"/>
        <path d="M 241 154 L 361 154" fill="none" stroke="#000000" stroke-miterlimit="10"/>
        <path d="M 241 179 L 361 179" fill="none" stroke="#000000" stroke-miterlimit="10"/>
        <path d="M 301 104 L 301 204" fill="none" stroke="#000000" stroke-miterlimit="10"/>
        <path d="M 241 104 M 361 104 M 361 129 M 241 129" fill="none" stroke="#000000" stroke-miterlimit="10"/>
        <rect x="241" y="104" width="60" height="25" fill="none" stroke="none"/>
        <path d="M 241 104 M 301 104 M 301 129 M 241 129" fill="none" stroke="#000000" stroke-miterlimit="10"/>

        <text x="271" y="120" fill="#000000" font-family="Helvetica" font-size="12px" text-anchor="middle">hero_id</text>
        <text x="331" y="120" fill="#000000" font-family="Helvetica" font-size="12px" text-anchor="middle">team_id</text>
        <rect x="241" y="129" width="60" height="25" fill="#bbe5f2" stroke="#000000"/>
        <text x="271" y="145" fill="#000000" font-family="Helvetica" font-size="12px" text-anchor="middle">2</text>
        <rect x="301" y="129" width="60" height="25" fill="#bbe5f2" stroke="#000000"/>
        <text x="331" y="145" fill="#000000" font-family="Helvetica" font-size="12px" text-anchor="middle">2</text>
        <rect x="241" y="154" width="60" height="25" fill="#bbe5f2" stroke="#000000"/>
        <text x="271" y="170" fill="#000000" font-family="Helvetica" font-size="12px" text-anchor="middle">4</text>
        <rect x="301" y="154" width="60" height="25" fill="#bbe5f2" stroke="#000000"/>
        <text x="331" y="170" fill="#000000" font-family="Helvetica" font-size="12px" text-anchor="middle">3</text>
        <rect x="241" y="179" width="60" height="25" fill="#bbe5f2" stroke="#000000"/>
        <text x="271" y="195" fill="#000000" font-family="Helvetica" font-size="12px" text-anchor="middle">5</text>
        <rect x="301" y="179" width="60" height="25" fill="#bbe5f2" stroke="#000000"/>
        <text x="331" y="195" fill="#000000" font-family="Helvetica" font-size="12px" text-anchor="middle">3</text>

        <path d="M 180 140 L 210.5 140 L 210.5 141.5 L 234.63 141.5" fill="none" stroke="#000000" stroke-miterlimit="10"/>
        <path d="M 239.88 141.5 L 232.88 145 L 234.63 141.5 L 232.88 138 Z" fill="#000000" stroke="#000000" stroke-miterlimit="10"/>
        <path d="M 180 196.5 L 210.5 196.5 L 210.5 166.5 L 234.63 166.5" fill="none" stroke="#000000" stroke-miterlimit="10"/>
        <path d="M 239.88 166.5 L 232.88 170 L 234.63 166.5 L 232.88 163 Z" fill="#000000" stroke="#000000" stroke-miterlimit="10"/>
        <path d="M 180 225 L 230 225 L 230 191.5 L 234.63 191.5" fill="none" stroke="#000000" stroke-miterlimit="10"/>
        <path d="M 239.88 191.5 L 232.88 195 L 234.63 191.5 L 232.88 188 Z" fill="#000000" stroke="#000000" stroke-miterlimit="10"/>
        <path d="M 433 144 L 397 144 L 397 141.5 L 367.37 141.5" fill="none" stroke="#000000" stroke-miterlimit="10"/>
        <path d="M 362.12 141.5 L 369.12 138 L 367.37 141.5 L 369.12 145 Z" fill="#000000" stroke="#000000" stroke-miterlimit="10"/>
        <path d="M 433 174 L 397 174 L 397 166.5 L 367.37 166.5" fill="none" stroke="#000000" stroke-miterlimit="10"/>
        <path d="M 362.12 166.5 L 369.12 163 L 367.37 166.5 L 369.12 170 Z" fill="#000000" stroke="#000000" stroke-miterlimit="10"/>
        <path d="M 433 174 L 433 179 L 397 179 L 397 191.5 L 367.37 191.5" fill="none" stroke="#000000" stroke-miterlimit="10"/>
        <path d="M 362.12 191.5 L 369.12 188 L 367.37 191.5 L 369.12 195 Z" fill="#000000" stroke="#000000" stroke-miterlimit="10"/>

        <text x="20" y="53" fill="#000000" font-family="Helvetica" font-size="14px" text-anchor="middle">hero</text>
        <text x="453" y="53" fill="#000000" font-family="Helvetica" font-size="14px" text-anchor="middle">team</text>
        <text x="270" y="53" fill="#000000" font-family="Helvetica" font-size="14px" text-anchor="middle">hero_team</text>
        <text x="40" y="14" fill="#000000" font-family="Helvetica" font-size="14px" text-anchor="middle">INNER JOIN</text>
        <text x="20" y="279" fill="#000000" font-family="Helvetica" font-size="14px" text-anchor="middle">Result</text>

        <g transform="translate(0,-15)">
            <rect x="1" y="320" width="319" height="120" fill="#ffffff" stroke="#000000"/>
            <path d="M 1 351 L 320 351" fill="none" stroke="#000000" stroke-miterlimit="10"/>
            <path d="M 1 380 L 320 380" fill="none" stroke="#000000" stroke-miterlimit="10"/>
            <path d="M 1 411 L 320 411" fill="none" stroke="#000000" stroke-miterlimit="10"/>
            <path d="M 70 320 L 70 440" fill="none" stroke="#000000" stroke-miterlimit="10"/>
            <path d="M 161 320 L 161 440" fill="none" stroke="#000000" stroke-miterlimit="10"/>
            <path d="M 230 320 L 230 440" fill="none" stroke="#000000" stroke-miterlimit="10"/>
            <path d="M 1 320 M 320 320 M 320 351 M 1 351" fill="none" stroke="#000000" stroke-miterlimit="10"/>
            <rect x="1" y="320" width="69" height="31" fill="none" stroke="none"/>

            <text x="36" y="339" fill="#000000" font-family="Helvetica" font-size="12px" text-anchor="middle">hero_id</text>
            <text x="116" y="339" fill="#000000" font-family="Helvetica" font-size="12px" text-anchor="middle">hero_name</text>
            <text x="196" y="339" fill="#000000" font-family="Helvetica" font-size="12px" text-anchor="middle">team_id</text>
            <text x="275" y="339" fill="#000000" font-family="Helvetica" font-size="12px" text-anchor="middle">team_name</text>
            <text x="36" y="369" fill="#000000" font-family="Helvetica" font-size="12px" text-anchor="middle">2</text>
            <text x="116" y="369" fill="#000000" font-family="Helvetica" font-size="12px" text-anchor="middle">Engineer</text>
            <text x="196" y="369" fill="#000000" font-family="Helvetica" font-size="12px" text-anchor="middle">2</text>
            <text x="275" y="369" fill="#000000" font-family="Helvetica" font-size="12px" text-anchor="middle">The Authority</text>
            <text x="36" y="399" fill="#000000" font-family="Helvetica" font-size="12px" text-anchor="middle">4</text>
            <text x="116" y="399" fill="#000000" font-family="Helvetica" font-size="12px" text-anchor="middle">Scarlet Witch</text>
            <text x="196" y="399" fill="#000000" font-family="Helvetica" font-size="12px" text-anchor="middle">3</text>
            <text x="275" y="399" fill="#000000" font-family="Helvetica" font-size="12px" text-anchor="middle">The Avengers</text>
            <text x="36" y="429" fill="#000000" font-family="Helvetica" font-size="12px" text-anchor="middle">5</text>
            <text x="116" y="429" fill="#000000" font-family="Helvetica" font-size="12px" text-anchor="middle">Vision</text>
            <text x="196" y="429" fill="#000000" font-family="Helvetica" font-size="12px" text-anchor="middle">3</text>
            <text x="275" y="429" fill="#000000" font-family="Helvetica" font-size="12px" text-anchor="middle">The Avengers</text>
        </g>
    </g>

</svg>